<?xml version="1.0" encoding="UTF-8" standalone="no"?>
<!-- Generator: Adobe Illustrator 16.0.0, SVG Export Plug-In . SVG Version: 6.00 Build 0)  -->

<svg
   xmlns:dc="http://purl.org/dc/elements/1.1/"
   xmlns:cc="http://creativecommons.org/ns#"
   xmlns:rdf="http://www.w3.org/1999/02/22-rdf-syntax-ns#"
   xmlns:svg="http://www.w3.org/2000/svg"
   xmlns="http://www.w3.org/2000/svg"
   xmlns:xlink="http://www.w3.org/1999/xlink"
   xmlns:sodipodi="http://sodipodi.sourceforge.net/DTD/sodipodi-0.dtd"
   xmlns:inkscape="http://www.inkscape.org/namespaces/inkscape"
   version="1.1"
   id="Layer_6"
   x="0px"
   y="0px"
   width="100px"
   height="100px"
   viewBox="0 0 100 100"
   enable-background="new 0 0 100 100"
   xml:space="preserve"
   inkscape:version="0.48.4 r9939"
   sodipodi:docname="spreadsheet.svg"><metadata
     id="metadata9"><rdf:RDF><cc:Work
         rdf:about=""><dc:format>image/svg+xml</dc:format><dc:type
           rdf:resource="http://purl.org/dc/dcmitype/StillImage" /><dc:title></dc:title></cc:Work></rdf:RDF></metadata><defs
     id="defs7"><filter
       x="-.059978"
       y="-.24035"
       color-interpolation-filters="sRGB"
       width="1.12"
       height="1.4807"
       id="filter3699"><feGaussianBlur
         stdDeviation="1.0014601"
         id="feGaussianBlur3701" /></filter><linearGradient
       x1="23.576"
       y1="25.357"
       gradientTransform="matrix(1.1539,-1.1591,1.1841,1.1777,-33.698,16.09)"
       x2="23.576"
       gradientUnits="userSpaceOnUse"
       y2="31.211"
       id="linearGradient2888"><stop
         offset="0"
         id="stop3157" /><stop
         offset=".13483"
         style="stop-color:#c3c3c3"
         id="stop3171" /><stop
         offset=".20224"
         style="stop-color:#8c8c8c"
         id="stop3173" /><stop
         offset=".26966"
         style="stop-color:#fff"
         id="stop3163" /><stop
         offset=".44650"
         style="stop-color:#757575"
         id="stop3165" /><stop
         offset=".57114"
         style="stop-color:#7d7d7d"
         id="stop3167" /><stop
         offset=".72038"
         style="stop-color:#b6b6b6"
         id="stop3169" /><stop
         offset="1"
         id="stop3159" /></linearGradient><linearGradient
       x1="30.038"
       y1="24.99"
       gradientTransform="matrix(1.1213,-1.1264,1.3858,1.3783,-37.505,10.578)"
       x2="30.038"
       gradientUnits="userSpaceOnUse"
       xlink:href="#linearGradient3240"
       y2="30"
       id="linearGradient2883" /><linearGradient
       x1="30.038"
       y1="24.99"
       gradientTransform="matrix(1.1213,-1.1264,1.3858,1.3783,-37.826,10.9)"
       x2="30.038"
       gradientUnits="userSpaceOnUse"
       xlink:href="#linearGradient3223"
       y2="30"
       id="linearGradient2880" /><linearGradient
       x1="30.038"
       y1="24.99"
       gradientTransform="matrix(1.1213,-1.1264,1.3858,1.3783,-36.389,9.4567)"
       x2="30.038"
       gradientUnits="userSpaceOnUse"
       xlink:href="#linearGradient3240"
       y2="30"
       id="linearGradient2877" /><linearGradient
       x1="30.038"
       y1="24.99"
       gradientTransform="matrix(1.1213,-1.1264,1.3858,1.3783,-36.71,9.7792)"
       x2="30.038"
       gradientUnits="userSpaceOnUse"
       xlink:href="#linearGradient3223"
       y2="30"
       id="linearGradient2874" /><linearGradient
       x1="30.038"
       y1="24.99"
       gradientTransform="matrix(1.1213,-1.1264,1.3858,1.3783,-35.268,8.3303)"
       x2="30.038"
       gradientUnits="userSpaceOnUse"
       xlink:href="#linearGradient3240"
       y2="30"
       id="linearGradient2871" /><linearGradient
       x1="30.038"
       y1="24.99"
       gradientTransform="matrix(1.1213,-1.1264,1.3858,1.3783,-35.589,8.6529)"
       x2="30.038"
       gradientUnits="userSpaceOnUse"
       xlink:href="#linearGradient3223"
       y2="30"
       id="linearGradient2868" /><linearGradient
       x1="5.5179"
       y1="37.372"
       gradientTransform="matrix(0.94216,0,0,0.941,1.4258,3.2093)"
       x2="9.5221"
       gradientUnits="userSpaceOnUse"
       y2="41.392"
       id="linearGradient2865"><stop
         offset="0"
         style="stop-color:#cbbd27"
         id="stop3193" /><stop
         offset="1"
         style="stop-color:#9b901d"
         id="stop3195" /></linearGradient><linearGradient
       x1="9"
       y1="29.057"
       gradientTransform="matrix(1.1213,-1.1264,1.3858,1.3783,-37.931,11.005)"
       x2="9"
       gradientUnits="userSpaceOnUse"
       y2="26.03"
       id="linearGradient2863"><stop
         offset="0"
         style="stop-color:#e4db7b"
         id="stop3292" /><stop
         offset="1"
         style="stop-color:#f4f0c8"
         id="stop3294" /></linearGradient><linearGradient
       id="linearGradient3223"><stop
         offset="0"
         style="stop-color:#999"
         id="stop3225" /><stop
         offset=".5"
         style="stop-color:#fff"
         id="stop3231" /><stop
         offset="1"
         style="stop-color:#777"
         id="stop3227" /></linearGradient><linearGradient
       id="linearGradient3240"><stop
         offset="0"
         style="stop-color:#3e3e3e"
         id="stop3242" /><stop
         offset=".5"
         style="stop-color:#828282"
         id="stop3244" /><stop
         offset="1"
         style="stop-color:#3c3c3c"
         id="stop3246" /></linearGradient></defs><sodipodi:namedview
     pagecolor="#ffffff"
     bordercolor="#666666"
     borderopacity="1"
     objecttolerance="10"
     gridtolerance="10"
     guidetolerance="10"
     inkscape:pageopacity="0"
     inkscape:pageshadow="2"
     inkscape:window-width="640"
     inkscape:window-height="480"
     id="namedview5"
     showgrid="false"
     inkscape:zoom="2.36"
     inkscape:cx="50"
     inkscape:cy="50"
     inkscape:window-x="644"
     inkscape:window-y="99"
     inkscape:window-maximized="0"
     inkscape:current-layer="layer1" /><path
     d="M86.904,14.373H13.096c-1.644,0-2.98,1.338-2.98,2.98v65.293c0,1.009,0.507,1.899,1.277,2.439v0.47h1.069  c0.205,0.044,0.416,0.071,0.634,0.071h73.809c0.218,0,0.429-0.027,0.633-0.071h0.147V85.51c1.264-0.346,2.2-1.492,2.2-2.863V17.354  C89.885,15.711,88.548,14.373,86.904,14.373z M87.33,17.354v8.588H67.672v-9.014h19.232C87.139,16.928,87.33,17.119,87.33,17.354z   M87.125,83H67.672v-8.09H87.33v7.736C87.33,82.798,87.245,82.926,87.125,83z M12.67,82.646V74.91h9.226V83h-9.021  C12.755,82.926,12.67,82.798,12.67,82.646z M43.399,52.555v8.857H24.45v-8.857H43.399z M24.45,50v-9.581h18.949V50H24.45z   M43.399,63.967v8.389H24.45v-8.389H43.399z M43.399,74.91V83H24.45v-8.09H43.399z M45.954,74.91h19.163V83H45.954V74.91z   M45.954,72.355v-8.389h19.163v8.389H45.954z M45.954,61.412v-8.857h19.163v8.857H45.954z M45.954,50v-9.581h19.163V50H45.954z   M45.954,37.864v-9.368h19.163v9.368H45.954z M45.954,25.941v-9.014h19.163v9.014H45.954z M43.399,25.941H24.45v-9.014h18.949  V25.941z M43.399,28.496v9.368H24.45v-9.368H43.399z M21.896,37.864H12.67v-9.368h9.226V37.864z M21.896,40.419V50H12.67v-9.581  H21.896z M21.896,52.555v8.857H12.67v-8.857H21.896z M21.896,63.967v8.389H12.67v-8.389H21.896z M67.672,72.355v-8.389H87.33v8.389  H67.672z M67.672,61.412v-8.857H87.33v8.857H67.672z M67.672,50v-9.581H87.33V50H67.672z M67.672,37.864v-9.368H87.33v9.368H67.672z  "
     id="path3" /><rect
     style="fill:#0000ff"
     id="rect2986"
     width="75.423729"
     height="7.6271186"
     x="12.288136"
     y="17.372881" /><rect
     style="fill:#0000ff"
     id="rect2988"
     width="75.847458"
     height="10.169492"
     x="11.440678"
     y="16.525423" /><g
     inkscape:groupmode="layer"
     id="layer1"
     inkscape:label="pencil"><g
       id="g3367"
       transform="matrix(1.4909524,0,0,1.2088072,12.40507,24.116283)"><path
         d="m 36.746,36.237 c -0.323,-0.0046 -0.58209,0.0365 -0.75667,0.08021 l -23.247,5.802 -4.2794,1.07 -0.1304,0.027 -5.4272,3.021 12.185,-1.3369 0.10437,-0.02674 4.3052,-1.0695 23.248,-5.8287 c 0.69833,-0.17484 -0.24405,-0.68626 -2.1135,-1.1497 -1.4021,-0.34758 -2.9187,-0.57454 -3.8877,-0.58822 z"
         style="opacity:0.15;fill-rule:evenodd;filter:url(#filter3699)"
         id="path2422"
         inkscape:connector-curvature="0" /><path
         d="m 9.1978,33.011 c 0.77547,-0.59607 2.8374,0.37028 4.691,2.2138 1.8492,1.8391 2.7785,3.8524 2.1948,4.6347 -0.0022,0.003 0.04557,0.04013 0.04331,0.04308 l 28.138,-28.265 c 0.715,-0.718 -0.255,-2.8465 -2.168,-4.7485 -1.912,-1.9021 -4.047,-2.8611 -4.761,-2.1435 l -28.138,28.265 z"
         style="fill:url(#linearGradient2888);stroke:#000000;stroke-linejoin:round"
         id="rect2383"
         inkscape:connector-curvature="0" /><path
         d="m 33.902,8.1955 c 0.77547,-0.59607 2.8374,0.37028 4.691,2.2138 1.8492,1.8391 2.7785,3.8524 2.1948,4.6347 -0.0022,0.003 0.04557,0.04013 0.04331,0.04308 l 3.4341,-3.4495 0.07008,-0.0704 c 0.0023,-0.003 -0.04553,-0.04009 -0.04331,-0.04307 0.584,-0.782 -0.346,-2.7954 -2.195,-4.6345 -1.854,-1.8436 -3.915,-2.8099 -4.691,-2.2139 l -0.07008,0.070398 -3.4341,3.4495 z"
         style="opacity:0.8;fill:#ff9de8;stroke:#dd78c5;stroke-linejoin:round"
         id="rect3175"
         inkscape:connector-curvature="0" /><path
         d="m 9.1978,33.011 c 0.77547,-0.59607 2.8374,0.37028 4.691,2.2138 1.8492,1.8391 2.7785,3.8524 2.1948,4.6347 -0.0022,0.003 0.04557,0.04013 0.04331,0.04308 l 19.378,-19.465 0.07008,-0.0704 c 0.0023,-0.003 -0.04552,-0.0401 -0.04331,-0.04308 0.58363,-0.78227 -0.34565,-2.7955 -2.1948,-4.6347 -1.8536,-1.8435 -3.9156,-2.8099 -4.691,-2.2138 L 28.5758,13.546 9.1978,33.011 z"
         style="opacity:0.6"
         id="path3208"
         inkscape:connector-curvature="0" /><path
         d="m 30.053,12.062 c 0.77547,-0.59608 2.8374,0.37028 4.691,2.2138 1.8492,1.8391 2.7785,3.8524 2.1948,4.6347 -0.0022,0.003 0.04557,0.04013 0.04332,0.04308 l 0.35041,-0.35199 c 0.0023,-0.003 -0.04552,-0.04009 -0.04331,-0.04308 0.58363,-0.78227 -0.34565,-2.7955 -2.1948,-4.6347 -1.8536,-1.8435 -3.9156,-2.8099 -4.691,-2.2138 L 30.05301,12.062 z"
         style="fill:url(#linearGradient2883)"
         id="path3233"
         inkscape:connector-curvature="0" /><path
         d="m 29.732,12.385 c 0.77547,-0.59608 2.8374,0.37028 4.691,2.2138 1.8492,1.8391 2.7785,3.8524 2.1948,4.6347 -0.0022,0.003 0.04557,0.04013 0.04331,0.04308 l 0.35041,-0.35199 c 0.0023,-0.003 -0.04554,-0.04009 -0.04331,-0.04308 0.58363,-0.78227 -0.34565,-2.7955 -2.1948,-4.6347 -1.8536,-1.8435 -3.9156,-2.8099 -4.691,-2.2138 L 29.732,12.385 z"
         style="fill:url(#linearGradient2880)"
         id="path3216"
         inkscape:connector-curvature="0" /><path
         d="m 31.169,10.941 c 0.77547,-0.59607 2.8374,0.37028 4.691,2.2138 1.8492,1.8391 2.7785,3.8524 2.1948,4.6347 -0.0022,0.003 0.04557,0.04013 0.04331,0.04308 l 0.35041,-0.35199 c 0.0023,-0.003 -0.04552,-0.04009 -0.04331,-0.04308 0.58363,-0.78227 -0.34565,-2.7955 -2.1948,-4.6347 -1.8536,-1.8436 -3.9156,-2.8099 -4.691,-2.2138 L 31.169,10.941 z"
         style="fill:url(#linearGradient2877)"
         id="path3248"
         inkscape:connector-curvature="0" /><path
         d="m 30.848,11.264 c 0.77547,-0.59608 2.8374,0.37028 4.691,2.2138 1.8492,1.8391 2.7785,3.8524 2.1948,4.6347 -0.0022,0.003 0.04557,0.04012 0.04331,0.04308 l 0.35041,-0.35199 c 0.0023,-0.003 -0.04552,-0.04009 -0.04331,-0.04308 0.58363,-0.78227 -0.34565,-2.7955 -2.1948,-4.6347 -1.8536,-1.8436 -3.9156,-2.8099 -4.691,-2.2138 L 30.848,11.264 z"
         style="fill:url(#linearGradient2874)"
         id="path3250"
         inkscape:connector-curvature="0" /><path
         d="m 32.29,9.8147 c 0.77547,-0.59607 2.8374,0.37028 4.691,2.2138 1.8492,1.8391 2.7785,3.8524 2.1948,4.6347 -0.0022,0.003 0.04557,0.04013 0.04331,0.04308 l 0.35041,-0.35199 c 0.0023,-0.003 -0.04552,-0.0401 -0.04331,-0.04308 0.58363,-0.78227 -0.34565,-2.7955 -2.1948,-4.6347 -1.853,-1.843 -3.915,-2.8094 -4.691,-2.2133 L 32.29,9.8152 z"
         style="fill:url(#linearGradient2871)"
         id="path3256"
         inkscape:connector-curvature="0" /><path
         d="m 31.969,10.137 c 0.77547,-0.59608 2.8374,0.37028 4.691,2.2138 1.8492,1.8391 2.7785,3.8524 2.1948,4.6347 -0.0022,0.003 0.04557,0.04013 0.04331,0.04308 l 0.35041,-0.35199 c 0.0023,-0.003 -0.04553,-0.0401 -0.04331,-0.04308 0.58363,-0.78227 -0.34565,-2.7955 -2.1948,-4.6347 -1.8536,-1.8436 -3.9156,-2.8099 -4.691,-2.2138 l -0.35,0.3516 z"
         style="fill:url(#linearGradient2868)"
         id="path3258"
         inkscape:connector-curvature="0" /><path
         d="m 3.5002,45.5 12.594,-5.443 c 0.584,-0.782 -0.358,-2.995 -2.208,-4.834 -1.853,-1.844 -4.0125,-2.804 -4.788,-2.208 L 3.5004,45.5 z"
         style="fill:url(#linearGradient2863);fill-rule:evenodd;stroke:url(#linearGradient2865)"
         id="path3270"
         inkscape:connector-curvature="0" /><path
         d="M 5.0434,42.118 3.5,45.487 6.9057,43.971 C 6.6513,43.661 6.4178,43.345 6.1096,43.039 5.7548,42.686 5.403,42.402 5.0434,42.118 z"
         style="fill-rule:evenodd;stroke:#000000"
         id="path3281"
         inkscape:connector-curvature="0" /></g></g></svg>