<?xml version="1.0" encoding="UTF-8" standalone="no"?>
<!-- Generator: Adobe Illustrator 16.0.0, SVG Export Plug-In . SVG Version: 6.00 Build 0)  -->

<svg
   xmlns:dc="http://purl.org/dc/elements/1.1/"
   xmlns:cc="http://creativecommons.org/ns#"
   xmlns:rdf="http://www.w3.org/1999/02/22-rdf-syntax-ns#"
   xmlns:svg="http://www.w3.org/2000/svg"
   xmlns="http://www.w3.org/2000/svg"
   xmlns:sodipodi="http://sodipodi.sourceforge.net/DTD/sodipodi-0.dtd"
   xmlns:inkscape="http://www.inkscape.org/namespaces/inkscape"
   version="1.1"
   id="Layer_6"
   x="0px"
   y="0px"
   width="100px"
   height="100px"
   viewBox="0 0 100 100"
   enable-background="new 0 0 100 100"
   xml:space="preserve"
   inkscape:version="0.48.4 r9939"
   sodipodi:docname="spreadsheet.svg"><metadata
     id="metadata9"><rdf:RDF><cc:Work
         rdf:about=""><dc:format>image/svg+xml</dc:format><dc:type
           rdf:resource="http://purl.org/dc/dcmitype/StillImage" /><dc:title></dc:title></cc:Work></rdf:RDF></metadata><defs
     id="defs7" /><sodipodi:namedview
     pagecolor="#ffffff"
     bordercolor="#666666"
     borderopacity="1"
     objecttolerance="10"
     gridtolerance="10"
     guidetolerance="10"
     inkscape:pageopacity="0"
     inkscape:pageshadow="2"
     inkscape:window-width="640"
     inkscape:window-height="480"
     id="namedview5"
     showgrid="false"
     inkscape:zoom="2.36"
     inkscape:cx="50"
     inkscape:cy="50"
     inkscape:window-x="644"
     inkscape:window-y="99"
     inkscape:window-maximized="0"
     inkscape:current-layer="Layer_6" /><path
     d="M86.904,14.373H13.096c-1.644,0-2.98,1.338-2.98,2.98v65.293c0,1.009,0.507,1.899,1.277,2.439v0.47h1.069  c0.205,0.044,0.416,0.071,0.634,0.071h73.809c0.218,0,0.429-0.027,0.633-0.071h0.147V85.51c1.264-0.346,2.2-1.492,2.2-2.863V17.354  C89.885,15.711,88.548,14.373,86.904,14.373z M87.33,17.354v8.588H67.672v-9.014h19.232C87.139,16.928,87.33,17.119,87.33,17.354z   M87.125,83H67.672v-8.09H87.33v7.736C87.33,82.798,87.245,82.926,87.125,83z M12.67,82.646V74.91h9.226V83h-9.021  C12.755,82.926,12.67,82.798,12.67,82.646z M43.399,52.555v8.857H24.45v-8.857H43.399z M24.45,50v-9.581h18.949V50H24.45z   M43.399,63.967v8.389H24.45v-8.389H43.399z M43.399,74.91V83H24.45v-8.09H43.399z M45.954,74.91h19.163V83H45.954V74.91z   M45.954,72.355v-8.389h19.163v8.389H45.954z M45.954,61.412v-8.857h19.163v8.857H45.954z M45.954,50v-9.581h19.163V50H45.954z   M45.954,37.864v-9.368h19.163v9.368H45.954z M45.954,25.941v-9.014h19.163v9.014H45.954z M43.399,25.941H24.45v-9.014h18.949  V25.941z M43.399,28.496v9.368H24.45v-9.368H43.399z M21.896,37.864H12.67v-9.368h9.226V37.864z M21.896,40.419V50H12.67v-9.581  H21.896z M21.896,52.555v8.857H12.67v-8.857H21.896z M21.896,63.967v8.389H12.67v-8.389H21.896z M67.672,72.355v-8.389H87.33v8.389  H67.672z M67.672,61.412v-8.857H87.33v8.857H67.672z M67.672,50v-9.581H87.33V50H67.672z M67.672,37.864v-9.368H87.33v9.368H67.672z  "
     id="path3" /><rect
     style="fill:#0000ff"
     id="rect2986"
     width="75.423729"
     height="7.6271186"
     x="12.288136"
     y="17.372881" /><rect
     style="fill:#0000ff"
     id="rect2988"
     width="75.847458"
     height="10.169492"
     x="11.440678"
     y="16.525423" /><path
     sodipodi:type="star"
     style="fill:#ffdd55"
     id="path3035"
     sodipodi:sides="5"
     sodipodi:cx="44.491524"
     sodipodi:cy="43.220341"
     sodipodi:r1="25.902969"
     sodipodi:r2="12.951485"
     sodipodi:arg1="1.305979"
     sodipodi:arg2="1.9342975"
     inkscape:flatsided="false"
     inkscape:rounded="0"
     inkscape:randomized="0"
     d="M 51.271185,68.220341 39.886639,55.325546 22.810141,57.393607 31.555802,42.581549 24.312031,26.9799 l 16.789662,3.740441 12.599601,-11.71041 1.630921,17.123777 15.030752,8.364217 -15.781697,6.842636 z"
     inkscape:transform-center-x="-2.0950305"
     inkscape:transform-center-y="0.39479519"
     transform="translate(8.4745763,11.016949)" /></svg>