<?xml version="1.0" encoding="UTF-8" standalone="no"?>
<!-- Created with Inkscape (http://www.inkscape.org/) -->
<svg id="svg11300" xmlns:rdf="http://www.w3.org/1999/02/22-rdf-syntax-ns#" style="enable-background:new" xmlns="http://www.w3.org/2000/svg" height="230" width="230" version="1.0" xmlns:cc="http://creativecommons.org/ns#" xmlns:xlink="http://www.w3.org/1999/xlink" xmlns:dc="http://purl.org/dc/elements/1.1/">
 <defs id="defs3">
  <clipPath id="clipPath3983" clipPathUnits="userSpaceOnUse">
   <path id="path3985" style="color:#000000;fill-rule:evenodd;enable-background:new;fill:#eeeeec" d="m184.12 701.5a2.2363 2.2363 0 0 0 -1.4688 0.90625s-3.328 4.7671-4.0312 11.156c-5.0181-4.0229-10.75-5.0625-10.75-5.0625a2.2363 2.2363 0 0 0 -2.5938 2.5625s1.034 5.7649 5.0625 10.781c-6.3978 0.70283-11.188 4.0312-11.188 4.0312a2.2363 2.2363 0 0 0 0 3.625s4.7948 3.3031 11.188 4c-4.0285 5.0164-5.0625 10.781-5.0625 10.781a2.2363 2.2363 0 0 0 2.5938 2.5625s5.7319-1.0396 10.75-5.0625c0.70267 6.3934 4.0312 11.188 4.0312 11.188a2.2363 2.2363 0 0 0 3.625 0s3.3111-4.8145 4-11.219c5.0262 4.0467 10.781 5.0938 10.781 5.0938a2.2363 2.2363 0 0 0 2.5938 -2.5938s-1.0624-5.7373-5.0938-10.75c6.397-0.69632 11.219-4 11.219-4a2.2363 2.2363 0 0 0 0 -3.625s-4.8167-3.329-11.219-4.0312c4.0313-5.0127 5.0938-10.75 5.0938-10.75a2.2363 2.2363 0 0 0 -2.59 -2.6s-5.755 1.047-10.781 5.0938c-0.69265-6.3936-4-11.188-4-11.188a2.2363 2.2363 0 0 0 -2.16 -0.91z"/>
  </clipPath>
  <filter id="filter4123" color-interpolation-filters="sRGB">
   <feGaussianBlur id="feGaussianBlur4125" stdDeviation="0.26224718"/>
  </filter>
  <clipPath id="clipPath4169" clipPathUnits="userSpaceOnUse">
   <path id="path4171" style="color:#000000;fill-rule:evenodd;enable-background:new;fill:#edd400" d="m471.43 685.93c0 22.097-12.842 40.01-12.842 40.01s-12.842-17.913-12.842-40.01 12.842-40.01 12.842-40.01 12.842 17.913 12.842 40.01z"/>
  </clipPath>
  <filter id="filter4173" width="1.4939" y="-.079258" x="-.24693" height="1.1585" color-interpolation-filters="sRGB">
   <feGaussianBlur id="feGaussianBlur4175" stdDeviation="2.642588"/>
  </filter>
  <clipPath id="clipPath4145" clipPathUnits="userSpaceOnUse">
   <path id="path4147" style="color:#000000;fill-rule:evenodd;enable-background:new;fill:#3465a4" d="m401.43 865.8c0 22.097-12.842 40.01-12.842 40.01s-12.842-17.913-12.842-40.01 12.842-40.01 12.842-40.01 12.842 17.913 12.842 40.01z"/>
  </clipPath>
  <filter id="filter4149" width="1.4939" y="-.079258" x="-.24693" height="1.1585" color-interpolation-filters="sRGB">
   <feGaussianBlur id="feGaussianBlur4151" stdDeviation="2.642588"/>
  </filter>
  <clipPath id="clipPath4181" clipPathUnits="userSpaceOnUse">
   <path id="path4183" style="color:#000000;fill-rule:evenodd;enable-background:new;fill:#ef2929" d="m348.71 698.73c-22.064 0-39.951-12.861-39.951-12.861s17.887-12.861 39.951-12.861 39.951 12.861 39.951 12.861-17.887 12.861-39.951 12.861z"/>
  </clipPath>
  <filter id="filter4189" width="1.1586" y="-.24639" x="-.079315" height="1.4928" color-interpolation-filters="sRGB">
   <feGaussianBlur id="feGaussianBlur4191" stdDeviation="2.6406013"/>
  </filter>
  <clipPath id="clipPath4197" clipPathUnits="userSpaceOnUse">
   <path id="path4199" style="color:#000000;fill-rule:evenodd;enable-background:new;fill:#75507b" d="m299.47 763.2c-15.602 15.625-37.33 19.197-37.33 19.197s3.5672-21.76 19.169-37.385 37.33-19.197 37.33-19.197-3.5672 21.76-19.169 37.385z"/>
  </clipPath>
  <filter id="filter4201" width="1.2402" y="-.11991" x="-.12009" height="1.2398" color-interpolation-filters="sRGB">
   <feGaussianBlur id="feGaussianBlur4203" stdDeviation="2.8270453"/>
  </filter>
  <clipPath id="clipPath4133" clipPathUnits="userSpaceOnUse">
   <path id="path4135" style="color:#000000;fill-rule:evenodd;enable-background:new;fill:#65c808" d="m538.47 738.73c-22.064 0-39.951-12.861-39.951-12.861s17.887-12.861 39.951-12.861 39.951 12.861 39.951 12.861-17.887 12.861-39.951 12.861z"/>
  </clipPath>
  <filter id="filter4137" width="1.1586" y="-.24639" x="-.079315" height="1.4928" color-interpolation-filters="sRGB">
   <feGaussianBlur id="feGaussianBlur4139" stdDeviation="2.6406015"/>
  </filter>
  <clipPath id="clipPath4071" clipPathUnits="userSpaceOnUse">
   <path id="path4073" style="color:#000000;fill-rule:evenodd;enable-background:new;fill:#afea2c" d="m515.87 706.72c-15.602 15.625-37.33 19.197-37.33 19.197s3.5672-21.76 19.169-37.385 37.33-19.197 37.33-19.197-3.5672 21.76-19.169 37.385z"/>
  </clipPath>
  <filter id="filter4075" width="1.2402" y="-.11991" x="-.12009" height="1.2398" color-interpolation-filters="sRGB">
   <feGaussianBlur id="feGaussianBlur4077" stdDeviation="2.8270455"/>
  </filter>
  <clipPath id="clipPath4083" clipPathUnits="userSpaceOnUse">
   <path id="path4085" style="color:#000000;fill-rule:evenodd;enable-background:new;fill:#729fcf" d="m515.87 745.01c15.602 15.625 19.169 37.385 19.169 37.385s-21.729-3.5724-37.33-19.197c-15.602-15.625-19.169-37.385-19.169-37.385s21.729 3.5724 37.33 19.197z"/>
  </clipPath>
  <filter id="filter4087" width="1.2402" y="-.11991" x="-.12009" height="1.2398" color-interpolation-filters="sRGB">
   <feGaussianBlur id="feGaussianBlur4089" stdDeviation="2.8270455"/>
  </filter>
  <clipPath id="clipPath4157" clipPathUnits="userSpaceOnUse">
   <path id="path4159" style="color:#000000;fill-rule:evenodd;enable-background:new;fill:#f57900" d="m269.47 688.53c15.602 15.625 19.169 37.385 19.169 37.385s-21.729-3.5724-37.33-19.197c-15.602-15.625-19.169-37.385-19.169-37.385s21.729 3.5724 37.33 19.197z"/>
  </clipPath>
  <filter id="filter4161" width="1.2402" y="-.11991" x="-.12009" height="1.2398" color-interpolation-filters="sRGB">
   <feGaussianBlur id="feGaussianBlur4163" stdDeviation="2.8270453"/>
  </filter>
  <linearGradient id="linearGradient4042" y2="745.97" gradientUnits="userSpaceOnUse" x2="190.87" y1="715.69" x1="177.02">
   <stop id="stop4117" style="stop-color:#e3e3e1" offset="0"/>
   <stop id="stop4119" style="stop-color:#7f8376" offset="1"/>
  </linearGradient>
  <filter id="filter4144" color-interpolation-filters="sRGB">
   <feGaussianBlur id="feGaussianBlur4146" stdDeviation="0.52449438"/>
  </filter>
  <radialGradient id="radialGradient4036" gradientUnits="userSpaceOnUse" cx="190.11" cy="803.94" r="25.774" gradientTransform="matrix(-7.1009 -3.7574 .65284 -1.2338 945.4 1718.8)">
   <stop id="stop4012-4" style="stop-color:#fff" offset="0"/>
   <stop id="stop4014-5" style="stop-color:#fff;stop-opacity:0" offset="1"/>
  </radialGradient>
  <radialGradient id="radialGradient4036-9" gradientUnits="userSpaceOnUse" cx="196.29" cy="714.44" r="25.774" gradientTransform="matrix(-.59883 -1.0815 1.5121 -.83725 -944.83 910.25)">
   <stop id="stop4012-2" style="stop-color:#fff" offset="0"/>
   <stop id="stop4014-51" style="stop-color:#fff;stop-opacity:0" offset="1"/>
  </radialGradient>
  <radialGradient id="radialGradient4036-6" gradientUnits="userSpaceOnUse" cx="174.42" cy="689.06" r="25.774" gradientTransform="matrix(.66762 -1.2556 .62963 .33477 -513.52 163.93)">
   <stop id="stop4012-3" style="stop-color:#fff" offset="0"/>
   <stop id="stop4014-4" style="stop-color:#fff;stop-opacity:0" offset="1"/>
  </radialGradient>
  <radialGradient id="radialGradient4036-3" gradientUnits="userSpaceOnUse" cx="213.74" cy="846.39" r="25.774" gradientTransform="matrix(2.1446 .54333 -.23563 .93006 -46.185 -798.23)">
   <stop id="stop4012-29" style="stop-color:#fff" offset="0"/>
   <stop id="stop4014-0" style="stop-color:#fff;stop-opacity:0" offset="1"/>
  </radialGradient>
 </defs>
 <metadata id="metadata4">
  <rdf:RDF>
   <cc:Work rdf:about="">
    <dc:format>image/svg+xml</dc:format>
    <dc:type rdf:resource="http://purl.org/dc/dcmitype/StillImage"/>
    <dc:creator>
     <cc:Agent>
      <dc:title>Lapo Calamandrei</dc:title>
     </cc:Agent>
    </dc:creator>
    <dc:source/>
    <cc:license rdf:resource=""/>
    <dc:title/>
    <dc:subject>
     <rdf:Bag>
      <rdf:li>keyboard</rdf:li>
      <rdf:li>keys</rdf:li>
      <rdf:li>configure</rdf:li>
     </rdf:Bag>
    </dc:subject>
    <dc:date/>
    <dc:rights>
     <cc:Agent>
      <dc:title/>
     </cc:Agent>
    </dc:rights>
    <dc:publisher>
     <cc:Agent>
      <dc:title/>
     </cc:Agent>
    </dc:publisher>
    <dc:identifier/>
    <dc:relation/>
    <dc:language/>
    <dc:coverage/>
    <dc:description/>
    <dc:contributor>
     <cc:Agent>
      <dc:title/>
     </cc:Agent>
    </dc:contributor>
   </cc:Work>
  </rdf:RDF>
 </metadata>
 <g id="layer1" transform="translate(-30.407 -47.718)">
  <g id="layer6" style="display:none">
   <rect id="rect6284" style="enable-background:accumulate;display:inline;fill:#eeeeec" height="48" width="48" y="49.996" x="296.06"/>
   <rect id="rect6592" style="enable-background:accumulate;display:inline;fill:#eeeeec" height="32" width="32" y="126" x="303"/>
   <rect id="rect8104" style="enable-background:accumulate;display:inline;fill:#fff" height="24" width="24" y="176" x="302"/>
   <rect id="rect6749" style="enable-background:accumulate;display:inline;fill:#eeeeec" height="22" width="22" y="177.06" x="303"/>
   <rect id="rect6833" style="enable-background:accumulate;display:inline;fill:#eeeeec" height="16" width="16" y="219" x="303"/>
   <rect id="rect3068" style="enable-background:accumulate;display:inline;fill:#eeeeec" height="256" width="256" y="31.996" x="16.062"/>
   <text id="context" style="font-size:18.301px;enable-background:new;font-family:Bitstream Vera Sans;display:inline;fill:#000000" xml:space="preserve" y="21.513618" x="20.970737"><tspan id="tspan2716" x="20.970737" y="21.513618">apps</tspan></text>
   <text id="text3021" style="font-size:18.301px;enable-background:new;font-family:Droid Sans;line-height:125%;font-weight:bold;display:inline;fill:#000000" xml:space="preserve" y="21.513618" x="191.97073"><tspan id="tspan3023" y="21.513618" x="191.97073">preferences-color</tspan></text>
  </g>
 </g>
 <g id="g4017" transform="translate(-24.606 -41.05)">
  <path id="path3687" style="color:#000000;fill-rule:evenodd;enable-background:new;fill:url(#linearGradient4042)" d="m184.12 701.5a2.2363 2.2363 0 0 0 -1.4688 0.90625s-3.328 4.7671-4.0312 11.156c-5.0181-4.0229-10.75-5.0625-10.75-5.0625a2.2363 2.2363 0 0 0 -2.5938 2.5625s1.034 5.7649 5.0625 10.781c-6.3978 0.70283-11.188 4.0312-11.188 4.0312a2.2363 2.2363 0 0 0 0 3.625s4.7948 3.3031 11.188 4c-4.0285 5.0164-5.0625 10.781-5.0625 10.781a2.2363 2.2363 0 0 0 2.5938 2.5625s5.7319-1.0396 10.75-5.0625c0.70267 6.3934 4.0312 11.188 4.0312 11.188a2.2363 2.2363 0 0 0 3.625 0s3.3111-4.8145 4-11.219c5.0262 4.0467 10.781 5.0938 10.781 5.0938a2.2363 2.2363 0 0 0 2.5938 -2.5938s-1.0624-5.7373-5.0938-10.75c6.397-0.69632 11.219-4 11.219-4a2.2363 2.2363 0 0 0 0 -3.625s-4.8167-3.329-11.219-4.0312c4.0313-5.0127 5.0938-10.75 5.0938-10.75a2.2363 2.2363 0 0 0 -2.59 -2.6s-5.755 1.047-10.781 5.0938c-0.69265-6.3936-4-11.188-4-11.188a2.2363 2.2363 0 0 0 -2.16 -0.91z" transform="matrix(4.1369 0 0 4.1487 -624.77 -2861.9)"/>
  <path id="path4136" style="opacity:.25;color:#000000;fill-rule:evenodd;filter:url(#filter4144);enable-background:new;fill:#2e3436" d="m184.12 701.5a2.2363 2.2363 0 0 0 -1.4688 0.90625s-3.328 4.7671-4.0312 11.156c-5.0181-4.0229-10.75-5.0625-10.75-5.0625a2.2363 2.2363 0 0 0 -2.5938 2.5625s1.034 5.7649 5.0625 10.781c-6.3978 0.70283-11.188 4.0312-11.188 4.0312a2.2363 2.2363 0 0 0 0 3.625s4.7948 3.3031 11.188 4c-4.0285 5.0164-5.0625 10.781-5.0625 10.781a2.2363 2.2363 0 0 0 2.5938 2.5625s5.7319-1.0396 10.75-5.0625c0.70267 6.3934 4.0312 11.188 4.0312 11.188a2.2363 2.2363 0 0 0 3.625 0s3.3111-4.8145 4-11.219c5.0262 4.0467 10.781 5.0938 10.781 5.0938a2.2363 2.2363 0 0 0 2.5938 -2.5938s-1.0624-5.7373-5.0938-10.75c6.397-0.69632 11.219-4 11.219-4a2.2363 2.2363 0 0 0 0 -3.625s-4.8167-3.329-11.219-4.0312c4.0313-5.0127 5.0938-10.75 5.0938-10.75a2.2363 2.2363 0 0 0 -2.59 -2.6s-5.755 1.047-10.781 5.0938c-0.69265-6.3936-4-11.188-4-11.188a2.2363 2.2363 0 0 0 -2.16 -0.91z" transform="matrix(4.1369 0 0 4.1487 -620.77 -2857.9)"/>
  <path id="path3979" style="opacity:.96694;color:#000000;fill-rule:evenodd;filter:url(#filter4123);enable-background:new;fill:#f9f9f9" d="m184.12 701.5a2.2363 2.2363 0 0 0 -1.4688 0.90625s-3.328 4.7671-4.0312 11.156c-5.0181-4.0229-10.75-5.0625-10.75-5.0625a2.2363 2.2363 0 0 0 -2.5938 2.5625s1.034 5.7649 5.0625 10.781c-6.3978 0.70283-11.188 4.0312-11.188 4.0312a2.2363 2.2363 0 0 0 0 3.625s4.7948 3.3031 11.188 4c-4.0285 5.0164-5.0625 10.781-5.0625 10.781a2.2363 2.2363 0 0 0 2.5938 2.5625s5.7319-1.0396 10.75-5.0625c0.70267 6.3934 4.0312 11.188 4.0312 11.188a2.2363 2.2363 0 0 0 3.625 0s3.3111-4.8145 4-11.219c5.0262 4.0467 10.781 5.0938 10.781 5.0938a2.2363 2.2363 0 0 0 2.5938 -2.5938s-1.0624-5.7373-5.0938-10.75c6.397-0.69632 11.219-4 11.219-4a2.2363 2.2363 0 0 0 0 -3.625s-4.8167-3.329-11.219-4.0312c4.0313-5.0127 5.0938-10.75 5.0938-10.75a2.2363 2.2363 0 0 0 -2.59 -2.6s-5.755 1.047-10.781 5.0938c-0.69265-6.3936-4-11.188-4-11.188a2.2363 2.2363 0 0 0 -2.16 -0.91z" clip-path="url(#clipPath3983)" transform="matrix(4.1369 0 0 4.1487 -624.77 -2861.9)"/>
  <path id="path3689" style="color:#000000;fill-rule:evenodd;enable-background:new;fill:#d5be00" d="m154.31 107.37c0 27.485-15.972 49.766-15.972 49.766s-15.972-22.281-15.972-49.766 15.972-49.766 15.972-49.766 15.972 22.281 15.972 49.766z"/>
  <path id="path4165" style="color:#000000;fill-rule:evenodd;filter:url(#filter4173);enable-background:new;fill:#edd400" d="m471.43 685.93c0 22.097-12.842 40.01-12.842 40.01s-12.842-17.913-12.842-40.01 12.842-40.01 12.842-40.01 12.842 17.913 12.842 40.01z" clip-path="url(#clipPath4169)" transform="matrix(1.2437 0 0 1.2439 -432.02 -745.82)"/>
  <path id="path3691" style="color:#000000;fill-rule:evenodd;enable-background:new;fill:#23446e" d="m154.31 206.72c0 27.485-15.972 49.766-15.972 49.766s-15.972-22.281-15.972-49.766 15.972-49.766 15.972-49.766 15.972 22.281 15.972 49.766z"/>
  <path id="path3693" style="color:#000000;fill-rule:evenodd;enable-background:new;fill:#56aa07" d="m187.93 173.05c-27.442 0-49.688-15.997-49.688-15.997s22.246-15.997 49.688-15.997 49.688 15.997 49.688 15.997-22.246 15.997-49.688 15.997z"/>
  <path id="path3695" style="color:#000000;fill-rule:evenodd;enable-background:new;fill:#ca0f0f" d="m88.736 173.05c-27.442 0-49.688-15.997-49.688-15.997s22.246-15.997 49.688-15.997 49.688 15.997 49.688 15.997-22.246 15.997-49.688 15.997z"/>
  <path id="path3697" style="color:#000000;fill-rule:evenodd;enable-background:new;fill:#85b912" d="m184.7 133.23c-19.404 19.435-46.429 23.878-46.429 23.878s4.4366-27.067 23.841-46.502 46.429-23.879 46.429-23.879-4.4366 27.067-23.841 46.502z"/>
  <path id="path4141" style="color:#000000;fill-rule:evenodd;filter:url(#filter4149);enable-background:new;fill:#3465a4" d="m401.43 865.8c0 22.097-12.842 40.01-12.842 40.01s-12.842-17.913-12.842-40.01 12.842-40.01 12.842-40.01 12.842 17.913 12.842 40.01z" clip-path="url(#clipPath4145)" transform="matrix(1.2437 0 0 1.2439 -344.96 -870.21)"/>
  <path id="path4177" style="color:#000000;fill-rule:evenodd;filter:url(#filter4189);enable-background:new;fill:#ef2929" d="m348.71 698.73c-22.064 0-39.951-12.861-39.951-12.861s17.887-12.861 39.951-12.861 39.951 12.861 39.951 12.861-17.887 12.861-39.951 12.861z" clip-path="url(#clipPath4181)" transform="matrix(1.2437 0 0 1.2439 -344.96 -696.07)"/>
  <path id="path3699" style="color:#000000;fill-rule:evenodd;enable-background:new;fill:#593d5e" d="m114.56 203.49c-19.404 19.435-46.429 23.878-46.429 23.878s4.4366-27.067 23.841-46.502 46.429-23.879 46.429-23.879-4.4366 27.067-23.841 46.502z"/>
  <path id="path3701" style="color:#000000;fill-rule:evenodd;enable-background:new;fill:#c96300" d="m114.56 110.61c19.404 19.435 23.841 46.502 23.841 46.502s-27.024-4.4435-46.429-23.878c-19.407-19.43-23.844-46.497-23.844-46.497s27.024 4.4436 46.429 23.879z"/>
  <path id="path4193" style="color:#000000;fill-rule:evenodd;filter:url(#filter4201);enable-background:new;fill:#75507b" d="m299.47 763.2c-15.602 15.625-37.33 19.197-37.33 19.197s3.5672-21.76 19.169-37.385 37.33-19.197 37.33-19.197-3.5672 21.76-19.169 37.385z" clip-path="url(#clipPath4197)" transform="matrix(1.2437 0 0 1.2439 -257.9 -745.82)"/>
  <path id="path3703" style="color:#000000;fill-rule:evenodd;enable-background:new;fill:#3f7bba" d="m184.7 180.86c19.404 19.435 23.841 46.502 23.841 46.502s-27.024-4.4435-46.429-23.878c-19.404-19.435-23.841-46.502-23.841-46.502s27.024 4.4436 46.429 23.879z"/>
  <path id="path4129" style="color:#000000;fill-rule:evenodd;filter:url(#filter4137);enable-background:new;fill:#65c808" d="m538.47 738.73c-22.064 0-39.951-12.861-39.951-12.861s17.887-12.861 39.951-12.861 39.951 12.861 39.951 12.861-17.887 12.861-39.951 12.861z" clip-path="url(#clipPath4133)" transform="matrix(1.2437 0 0 1.2439 -481.77 -745.82)"/>
  <path id="path4067" style="color:#000000;fill-rule:evenodd;filter:url(#filter4075);enable-background:new;fill:#afea2c" d="m515.87 706.72c-15.602 15.625-37.33 19.197-37.33 19.197s3.5672-21.76 19.169-37.385 37.33-19.197 37.33-19.197-3.5672 21.76-19.169 37.385z" clip-path="url(#clipPath4071)" transform="matrix(1.2437 0 0 1.2439 -456.9 -745.82)"/>
  <path id="path4079" style="color:#000000;fill-rule:evenodd;filter:url(#filter4087);enable-background:new;fill:#729fcf" d="m515.87 745.01c15.602 15.625 19.169 37.385 19.169 37.385s-21.729-3.5724-37.33-19.197c-15.602-15.625-19.169-37.385-19.169-37.385s21.729 3.5724 37.33 19.197z" clip-path="url(#clipPath4083)" transform="matrix(1.2437 0 0 1.2439 -456.9 -745.82)"/>
  <path id="path4153" style="color:#000000;fill-rule:evenodd;filter:url(#filter4161);enable-background:new;fill:#f57900" d="m269.47 688.53c15.602 15.625 19.169 37.385 19.169 37.385s-21.729-3.5724-37.33-19.197c-15.602-15.625-19.169-37.385-19.169-37.385s21.729 3.5724 37.33 19.197z" clip-path="url(#clipPath4157)" transform="matrix(1.2437 0 0 1.2439 -220.59 -745.82)"/>
  <path id="path3705" style="opacity:.1;color:#000000;fill-rule:evenodd;enable-background:new;fill:#fff" d="m187.62 727.61c0 1.864-1.511 3.375-3.375 3.375s-3.375-1.511-3.375-3.375 1.511-3.375 3.375-3.375 3.375 1.511 3.375 3.375z" transform="matrix(6.548 0 0 6.5668 -1069 -4621.3)"/>
  <path id="path3707" style="opacity:.1;color:#000000;fill-rule:evenodd;enable-background:new;fill:#fff" d="m187.62 727.61c0 1.864-1.511 3.375-3.375 3.375s-3.375-1.511-3.375-3.375 1.511-3.375 3.375-3.375 3.375 1.511 3.375 3.375z" transform="matrix(14.096 0 0 14.136 -2459.7 -10129)"/>
  <path id="path3906" style="opacity:.1;color:#000000;fill-rule:evenodd;enable-background:new;fill:#fff" d="m137.45 85.333c-4.1503 0-8.2004 0.3795-12.156 1.0625-1.7282 6.3747-2.9375 13.471-2.9375 20.969 0 5.0399 0.52913 9.9153 1.4062 14.5-2.6169-3.8639-5.6598-7.6855-9.2188-11.25-5.3715-5.3799-11.323-9.6005-17.125-12.906-7.1881 4.9097-13.431 11.101-18.406 18.25 3.3114 5.8519 7.5596 11.864 12.969 17.281 3.5524 3.5579 7.337 6.601 11.188 9.2188-4.5674-0.87461-9.4181-1.4062-14.438-1.4062-7.6579 0-14.897 1.266-21.375 3.0625-0.73474 4.1148-1.1562 8.3608-1.1562 12.688 0 4.5245 0.44816 8.9276 1.25 13.219 6.454 1.7824 13.661 3.0312 21.281 3.0312 5.0083 0 9.8477-0.53507 14.406-1.4062-3.8391 2.6127-7.6142 5.6712-11.156 9.2188-5.3237 5.332-9.5243 11.236-12.812 17 5.0429 7.1852 11.375 13.382 18.656 18.281 5.6708-3.2703 11.475-7.404 16.719-12.656 3.5589-3.5645 6.6018-7.3861 9.2188-11.25-0.87712 4.5847-1.4062 9.4601-1.4062 14.5 0 7.2763 1.1355 14.178 2.7812 20.406 4.0053 0.70084 8.1072 1.0938 12.312 1.0938 4.843 0 9.5846-0.51403 14.156-1.4375 1.5959-6.1375 2.6875-12.921 2.6875-20.062 0-5.0401-0.52905-9.9152-1.4062-14.5 2.6172 3.8645 5.6593 7.6849 9.2188 11.25 4.9486 4.9563 10.384 8.944 15.75 12.125 7.4166-5.1316 13.828-11.613 18.844-19.125-3.1608-5.3216-7.1005-10.718-12-15.625-3.542-3.5476-7.3484-6.606-11.188-9.2188 4.5674 0.87461 9.3868 1.4062 14.406 1.4062 6.9092 0 13.49-1.0135 19.469-2.5312 0.86405-4.4474 1.3125-9.0178 1.3125-13.719 0-4.5032-0.42428-8.9154-1.2188-13.188-6.0041-1.5314-12.616-2.5625-19.562-2.5625-5.0416 0-9.8836 0.52476-14.469 1.4062 3.8578-2.621 7.6911-5.6542 11.25-9.2188 4.9849-4.9928 8.9681-10.495 12.156-15.906-4.9435-7.4702-11.248-13.953-18.562-19.094-5.5072 3.223-11.104 7.2837-16.188 12.375-3.5595 3.565-6.6016 7.3855-9.2188 11.25 0.8772-4.5848 1.4062-9.4599 1.4062-14.5 0-7.3625-1.1659-14.339-2.8438-20.625-4.5237-0.90329-9.2116-1.4062-14-1.4062z"/>
 </g>
 <path id="path4008-6" style="opacity:.96694;stroke-width:2;color:#000000;stroke:url(#radialGradient4036);enable-background:new;fill:none" d="m113.24 10.256c-0.19939 0.02904-0.18988 0.09127-0.38762 0.12986-0.1994 0.03319-0.1903-0.04149-0.38763 0-0.19774 0.04149-0.0633 0.07841-0.25856 0.12986-0.19526 0.05103-0.0662-0.06099-0.25855 0-0.19237 0.06099-0.19857 0.05933-0.38763 0.12986-0.18905 0.07011-0.0732 0.0502-0.25855 0.12986-0.18534 0.07966-0.0774 0.04149-0.25856 0.12986-0.1812 0.08878-0.0819 0.03319-0.25856 0.12986-0.17664 0.0975-0.0869 0.02489-0.25855 0.12986-0.17168 0.10621-0.0922 0.14479-0.25856 0.2593-0.1663 0.1145-0.098 0.0083-0.25855 0.12986-0.16051 0.1228-0.10425 0.12861-0.25856 0.2593-0.1543 0.13068-0.11087-0.0083-0.25855 0.12986-0.14769 0.13815-0.11791 0.11409-0.25856 0.2593s0.004 0.10704-0.12948 0.2593c-0.13321 0.15226-0.13321-0.02904-0.25856 0.12986-0.12535 0.15848-0.0124 0.09459-0.12949 0.2593 0 0-13.344 19.338-16.16 44.988a2.9762 2.9847 0 0 1 -4.7833 1.9447c-20.094-16.153-43.181-20.355-43.181-20.355-0.23911-0.0419-0.14645-0.10206-0.38763-0.12986-0.24118-0.02904-0.1452 0.01245-0.38763 0-0.24242-0.01245-0.1452-0.0012-0.38763 0-0.24284 0.0012-0.14562-0.0166-0.38763 0-0.24242 0.01659-0.01655-0.02904-0.25856 0-0.24077 0.02904-0.14893 0.08505-0.38763 0.12986-0.2387 0.04439-0.15224-0.0585-0.38763 0-0.2358 0.0585-0.15596 0.05684-0.38763 0.12986-0.23167 0.0726-0.16092 0.04315-0.38763 0.12986-0.22712 0.08629-0.03723 0.02904-0.25856 0.12986-0.22132 0.09957-0.17251 0.01659-0.38763 0.12986-0.21512 0.11285-0.05047 0.134-0.25856 0.2593-0.20808 0.12529-0.1874-0.0083-0.38763 0.12986-0.20022 0.13774-0.0666 0.10994-0.25856 0.2593-0.19195 0.14935-0.07612 0.09874-0.25856 0.2593s-0.08563 0.08837-0.25856 0.2593c-0.17292 0.17093-0.09639 0.078-0.25856 0.2593s-0.10714 0.06887-0.25856 0.2593c-0.15141 0.19043-0.11914 0.1896-0.25856 0.38874-0.13941 0.19914-0.13114 0.05227-0.25856 0.2593-0.12742 0.20702-0.01241 0.04481-0.12948 0.2593-0.115 0.21449-0.02896 0.16802-0.12948 0.38874-0.10218 0.22113-0.16961 0.16222-0.25856 0.38874-0.08894 0.22652-0.05419 0.02904-0.12948 0.2593-0.07529 0.2315 0.06123 0.1535 0 0.38874-0.06123 0.23565-0.08191 0.15018-0.12948 0.38874-0.04716 0.23897 0.03309 0.1477 0 0.38874s-0.11087 0.14604-0.12948 0.38874c-0.01655 0.2427 0.0041 0.14562 0 0.38874-0.0041 0.24353-0.0083 0.14562 0 0.38874s-0.02482 0.01659 0 0.2593c0.02482 0.24229 0.09018 0.14852 0.12948 0.38874 0 0 4.1725 23.296 20.297 43.432a2.9762 2.9847 0 0 1 -1.9392 4.797c-25.614 2.8218-44.989 16.206-44.989 16.206-0.19526 0.14147-0.07198-0.0249-0.25856 0.12985-0.18657 0.15268-0.0815 0.0958-0.25856 0.2593-0.17706 0.16346-0.09143 0.0855-0.25856 0.2593-0.16713 0.17383-0.10177 0.0759-0.25856 0.25929-0.15679 0.18338-0.11294 0.19665-0.25856 0.38874s0.0041 0.0589-0.12948 0.2593c-0.13404 0.20038-0.13652 0.051-0.25856 0.25929-0.12204 0.20827-0.02068 0.17383-0.12948 0.38874-0.10963 0.2149-0.16175 0.0373-0.25856 0.2593-0.0968 0.22112-0.04592 0.16263-0.12948 0.38873-0.08357 0.22652-0.05916 0.15807-0.12948 0.38874-0.06991 0.23108 0.05626 0.15433 0 0.38874-0.05626 0.23482-0.08688 0.0207-0.12948 0.25929-0.04261 0.23773 0.02896 0.14936 0 0.38874-0.02896 0.2398-0.11501 0.14811-0.12948 0.38874-0.01241 0.24104 0 0.14769 0 0.38874 0 0.24145-0.01241 0.14811 0 0.38873 0.01241 0.24104 0.10094 0.14936 0.12948 0.38874 0.02896 0.2398-0.04261 0.15143 0 0.38874 0.04261 0.23772 0.07281 0.0249 0.12948 0.25929 0.05626 0.23482-0.06991 0.15807 0 0.38874 0.06991 0.23109 0.04592 0.16263 0.12948 0.38874 0.08357 0.22652 0.0331 0.16802 0.12948 0.38873 0.0968 0.22113 0.14893 0.0444 0.25856 0.2593 0.10963 0.21491 0.0083 0.18089 0.12948 0.38874 0.12204 0.20827 0.12452 0.0589 0.25856 0.25929s-0.01655 0.0672 0.12948 0.2593c0.14562 0.19209 0.10177 0.20578 0.25856 0.38874 0.15679 0.18337 0.09143 0.0855 0.25856 0.25929 0.16713 0.17384 0.0815 0.0958 0.25856 0.2593 0.17706 0.16346 0.07198 0.10662 0.25856 0.2593 0.18657 0.15267 0.06329-0.0125 0.25856 0.12985 0 0 19.261 13.278 44.859 16.076a2.9762 2.9847 0 0 1 2.0684 4.797c-16.124 20.13-20.296 43.43-20.296 43.43-0.03723 0.24021-0.10466 0.14687-0.12948 0.38874-0.02482 0.24229 0.0083 0.0166 0 0.2593-0.0083 0.24311-0.0041 0.14562 0 0.38873 0.0041 0.24353-0.01655 0.14604 0 0.38874s0.09639 0.1477 0.12948 0.38874-0.04716 0.15018 0 0.38873c0.04716 0.23897 0.06785 0.15351 0.12948 0.38874 0.06123 0.23565-0.07529 0.15765 0 0.38874 0.07529 0.2315 0.04137 0.0332 0.12948 0.2593 0.08894 0.22652 0.15637 0.16802 0.25856 0.38873 0.10218 0.22113 0.01241 0.17466 0.12948 0.38874 0.11501 0.21449 0.0017 0.0523 0.12948 0.2593 0.12742 0.20702 0.11914 0.0601 0.25856 0.25929 0.13941 0.19914 0.10714 0.19831 0.25856 0.38874 0.15141 0.19043 0.09639 0.078 0.25856 0.2593s0.08563 0.0884 0.25856 0.25929c0.17292 0.17093 0.07612 0.0987 0.25856 0.2593 0.18244 0.16056 0.0666 0.10994 0.25856 0.2593 0.19195 0.14935 0.05833 0.12155 0.25856 0.25929s0.17996 0.004 0.38763 0.12986c0.20809 0.12529 0.04344 0.14645 0.25856 0.25929 0.21512 0.11285 0.1663 0.029 0.38763 0.12986 0.22132 0.0996 0.0331 0.0431 0.25856 0.12985 0.22712 0.0863 0.15596 0.0568 0.38763 0.12986 0.23167 0.0726 0.15224 0.0709 0.38763 0.12986 0.2358 0.0585 0.14893-0.0444 0.38763 0s0.14686 0.0996 0.38763 0.12985c0.24077 0.029 0.01655-0.0166 0.25856 0 0.24242 0.0166 0.1452-0.001 0.38763 0 0.24284 0.001 0.1452 0.0125 0.38763 0 0.24242-0.0124 0.14645 0.029 0.38763 0s0.14893-0.0875 0.38763-0.12985c0 0 23.087-4.2017 43.179-20.355a2.9762 2.9847 0 0 1 4.7833 1.9447c2.813 25.668 16.16 45.118 16.16 45.118 0.14106 0.19582-0.0248 0.0722 0.12948 0.25929 0.15224 0.18711 0.0956 0.0817 0.25856 0.2593 0.16299 0.17757 0.0852 0.0917 0.25855 0.2593 0.17334 0.16761 0.0757 0.10206 0.25856 0.25929 0.18285 0.15724 0.19609 0.11326 0.38763 0.2593 0.19153 0.14604 0.0587-0.004 0.25855 0.12986 0.19981 0.13441 0.0509 0.1369 0.25856 0.25929 0.20767 0.12239 0.17333 0.0208 0.38762 0.12986 0.2143 0.10994 0.0372 0.16221 0.25856 0.25929 0.2205 0.0971 0.16217 0.0461 0.38763 0.12986 0.22587 0.0838 0.15761 0.0593 0.38762 0.12985 0.23043 0.0701 0.1539-0.0564 0.38763 0 0.23415 0.0564 0.0207 0.0871 0.25856 0.12986 0.23704 0.0427 0.14892-0.029 0.38762 0 0.23912 0.029 0.14769 0.11534 0.38763 0.12986 0.24035 0.0124 0.14727 0 0.38763 0 0.24076 0 0.14768 0.0124 0.38762 0 0.24036-0.0125 0.14893-0.10123 0.38763-0.12986 0.23911-0.029 0.151 0.0427 0.38763 0 0.23704-0.0427 0.0248-0.073 0.25855-0.12986 0.23415-0.0564 0.15762 0.0701 0.38763 0 0.23042-0.0701 0.16217-0.0461 0.38763-0.12985 0.22587-0.0838 0.16754-0.0332 0.38762-0.12986 0.2205-0.0971 0.0443-0.14935 0.25856-0.25929 0.21429-0.10994 0.18037-0.008 0.38763-0.12986 0.20767-0.12239 0.0587-0.12488 0.25855-0.25929 0.19981-0.13442 0.067 0.0166 0.25856-0.12986 0.19154-0.14604 0.20519-0.10206 0.38762-0.2593 0.18286-0.15723 0.0852-0.0917 0.25856-0.25929 0.17334-0.16761 0.0956-0.0817 0.25856-0.2593 0.16299-0.17757 0.10631-0.0722 0.25855-0.2593s-0.0124-0.0635 0.12949-0.25929c0 0 13.272-19.401 16.03-45.118a2.9762 2.9847 0 0 1 4.7833 -2.0744c20.124 16.249 43.308 20.484 43.308 20.484 0.24118 0.0431 0.14438 0.10123 0.38763 0.12985 0.24325 0.029 0.14313-0.0124 0.38762 0 0.24449 0.0125 0.14273 0.001 0.38763 0 0.2449-0.00099 0.14355 0.0166 0.38763 0 0.24449-0.0166 0.14479 0.029 0.38762 0 0.24325-0.029 0.0166-0.0846 0.25856-0.12985 0.24077-0.0452 0.15017 0.0593 0.38763 0 0.23745-0.0593 0.1543-0.056 0.38762-0.12986 0.23374-0.0738 0.15886-0.0419 0.38763-0.12986 0.22877-0.0875 0.16465-0.029 0.38763-0.12985 0.22298-0.10123 0.0418-0.14479 0.25855-0.2593 0.21678-0.1145 0.1783-0.002 0.38763-0.12985 0.20933-0.12737 0.0571-0.11949 0.25856-0.2593s0.19526 0.0207 0.38762-0.12985c0.19278-0.15185 0.0753-0.0963 0.25856-0.2593 0.18326-0.16305 0.0852-0.0855 0.25855-0.2593 0.17334-0.17383 0.096-0.0755 0.25856-0.25929 0.16258-0.18379 0.10715-0.066 0.25856-0.2593 0.15141-0.19333-0.008-0.18669 0.12948-0.38874 0.13941-0.20204 0.13155-0.0494 0.25856-0.25929 0.127-0.20993 0.0165-0.17176 0.12948-0.38874 0.11418-0.2174 0.15762-0.0373 0.25856-0.2593 0.10094-0.22361 0.0418-0.15931 0.12948-0.38873 0.0873-0.22943 0.0558-0.15475 0.12949-0.38874 0.0736-0.23441 0.0699-0.1506 0.12948-0.38874 0.0592-0.23855-0.0451-0.14728 0-0.38874 0.0451-0.24145 0.0989-0.0166 0.12949-0.25929 0.0289-0.24395-0.0165-0.14396 0-0.38874 0.0165-0.24519-0.001-0.14313 0-0.38874 0.00099-0.2456 0.0124-0.14354 0-0.38873-0.0124-0.2452 0.0289-0.1448 0-0.38874-0.029-0.24395-0.0865-0.14687-0.12949-0.38874 0 0-4.2836-23.173-20.426-43.302a2.9762 2.9847 0 0 1 2.0684 -4.797c25.617-2.7964 44.989-16.076 44.989-16.076 0.19526-0.14147 0.072 0.0249 0.25855-0.12986 0.18658-0.15267 0.0815-0.0958 0.25856-0.25929 0.17706-0.16346 0.0914-0.0855 0.25855-0.2593 0.16713-0.17383 0.10177-0.0759 0.25856-0.2593 0.15679-0.18337 0.11294-0.19665 0.25856-0.38873 0.14561-0.19209-0.004-0.0589 0.12948-0.2593 0.13404-0.20039 0.13652-0.051 0.25856-0.2593 0.12203-0.20826 0.0207-0.17383 0.12948-0.38873 0.10963-0.21491 0.16175-0.0373 0.25856-0.2593 0.0968-0.22113 0.0459-0.16263 0.12948-0.38874 0.0836-0.22652 0.0592-0.15807 0.12949-0.38874 0.0699-0.23108-0.0563-0.15433 0-0.38873 0.0563-0.23482 0.0869-0.0207 0.12948-0.2593 0.0426-0.23772-0.029-0.14935 0-0.38874 0.029-0.23979 0.11501-0.14811 0.12949-0.38873 0.0124-0.24105 0-0.1477 0-0.38874 0-0.24146 0.0124-0.14811 0-0.38874-0.0124-0.24104-0.10094-0.14935-0.12949-0.38873-0.029-0.2398 0.0426-0.15143 0-0.38874-0.0426-0.23773-0.0728-0.0249-0.12948-0.2593-0.0563-0.23482 0.0699-0.15807 0-0.38874-0.0699-0.23108-0.0459-0.16263-0.12949-0.38873-0.0836-0.22652-0.0331-0.16803-0.12948-0.38874-0.0968-0.22113-0.14893-0.0444-0.25856-0.2593s-0.008-0.18088-0.12948-0.38873c-0.12204-0.20827-0.12452-0.0589-0.25856-0.2593-0.13404-0.20038 0.0165-0.0672-0.12948-0.2593-0.14562-0.19208-0.10177-0.20577-0.25856-0.38873-0.15679-0.18338-0.0914-0.0855-0.25856-0.2593-0.16713-0.17383-0.0815-0.0958-0.25855-0.2593-0.17706-0.16346-0.072-0.10662-0.25856-0.25929-0.18657-0.15268-0.0633 0.0124-0.25855-0.12986 0 0-19.486-13.386-45.118-16.206a2.9762 2.9847 0 0 1 -1.9338 -4.8001c16.142-20.129 20.426-43.303 20.426-43.303 0.043-0.24187 0.10094-0.14479 0.12948-0.38874 0.029-0.24395-0.0124-0.14355 0-0.38874s0.001-0.14313 0-0.38874c-0.00099-0.2456 0.0165-0.14396 0-0.38874-0.0165-0.24519 0.029-0.14521 0-0.38874-0.029-0.24395-0.0844-0.01659-0.12948-0.2593-0.0451-0.24146 0.0592-0.1506 0-0.38874-0.0592-0.23855-0.0558-0.15475-0.12949-0.38874-0.0736-0.2344-0.0418-0.15931-0.12948-0.38874-0.0873-0.22942-0.029-0.16512-0.12949-0.38874-0.10094-0.22362-0.14437-0.0419-0.25855-0.2593-0.11418-0.21739-0.002-0.17881-0.12949-0.38874-0.127-0.20993-0.11914-0.05725-0.25855-0.2593-0.13941-0.20204 0.0207-0.19582-0.12949-0.38874-0.15141-0.19333-0.096-0.07551-0.25855-0.2593-0.16258-0.18379-0.0852-0.08546-0.25856-0.2593-0.17333-0.17383-0.0753-0.09625-0.25855-0.2593-0.18327-0.16304-0.0658-0.10745-0.25856-0.2593-0.19278-0.15184-0.18657 0.0083-0.38763-0.12986-0.20146-0.13981-0.0492-0.13193-0.25855-0.2593-0.20933-0.12737-0.17127-0.01659-0.38763-0.12986-0.21677-0.1145-0.0372-0.15807-0.25855-0.2593-0.22298-0.10123-0.15886-0.0419-0.38763-0.12986-0.22877-0.08754-0.15431-0.05601-0.38763-0.12986-0.23373-0.07385-0.15017-0.07011-0.38763-0.12986-0.23745-0.05933-0.14685 0.04522-0.38762 0s-0.0165-0.09915-0.25856-0.12986c-0.24325-0.02904-0.14355 0.01659-0.38762 0-0.24449-0.0166-0.14273 0.000996-0.38763 0-0.24491-0.000996-0.14314-0.01245-0.38763 0s-0.14438-0.02904-0.38762 0c-0.24325 0.02904-0.14645 0.08671-0.38763 0.12986 0 0-23.184 4.2357-43.308 20.484a2.9762 2.9847 0 0 1 -4.7833 -2.0744c-2.7733-25.673-16.03-44.988-16.03-44.988-0.1481-0.2091-0.0976-0.06016-0.25855-0.2593-0.16093-0.19914-0.0852-0.07053-0.25856-0.2593-0.17333-0.18877-0.074-0.21117-0.25855-0.38874-0.18451-0.17757-0.0633-0.09376-0.25856-0.2593-0.19526-0.16553-0.0534 0.02489-0.25855-0.12986-0.20519-0.15309-0.17334-0.11948-0.38763-0.2593-0.21471-0.13981-0.0372-0.13317-0.25856-0.2593-0.22298-0.12612-0.15761-0.0166-0.38762-0.12986-0.23043-0.1116-0.151-0.03319-0.38763-0.12986-0.23663-0.09708-0.14562-0.17715-0.38763-0.2593-0.24242-0.08214-0.14065 0.06638-0.38762 0-0.24698-0.06638-0.13735-0.07883-0.38763-0.12986-0.2507-0.05103-0.13445-0.09459-0.38763-0.12986-0.25359-0.03319-0.13279 0.02074-0.38762 0-0.25525-0.02074-0.13197 0.0029-0.38763 0-0.17044-0.0019-0.19857-0.003-0.25856 0-0.10011 0.0083-0.10218-0.0032-0.12948 0-0.029 0.0032-0.029-0.01245-0.12949 0z"/>
 <path id="path4008-7" style="opacity:.96694;stroke-width:2;color:#000000;stroke:url(#radialGradient4036-9);enable-background:new;fill:none" d="m113.24 10.256c-0.19939 0.02904-0.18988 0.09127-0.38762 0.12986-0.1994 0.03319-0.1903-0.04149-0.38763 0-0.19774 0.04149-0.0633 0.07841-0.25856 0.12986-0.19526 0.05103-0.0662-0.06099-0.25855 0-0.19237 0.06099-0.19857 0.05933-0.38763 0.12986-0.18905 0.07011-0.0732 0.0502-0.25855 0.12986-0.18534 0.07966-0.0774 0.04149-0.25856 0.12986-0.1812 0.08878-0.0819 0.03319-0.25856 0.12986-0.17664 0.0975-0.0869 0.02489-0.25855 0.12986-0.17168 0.10621-0.0922 0.14479-0.25856 0.2593-0.1663 0.1145-0.098 0.0083-0.25855 0.12986-0.16051 0.1228-0.10425 0.12861-0.25856 0.2593-0.1543 0.13068-0.11087-0.0083-0.25855 0.12986-0.14769 0.13815-0.11791 0.11409-0.25856 0.2593s0.004 0.10704-0.12948 0.2593c-0.13321 0.15226-0.13321-0.02904-0.25856 0.12986-0.12535 0.15848-0.0124 0.09459-0.12949 0.2593 0 0-13.344 19.338-16.16 44.988a2.9762 2.9847 0 0 1 -4.7833 1.9447c-20.094-16.153-43.181-20.355-43.181-20.355-0.23911-0.0419-0.14645-0.10206-0.38763-0.12986-0.24118-0.02904-0.1452 0.01245-0.38763 0-0.24242-0.01245-0.1452-0.0012-0.38763 0-0.24284 0.0012-0.14562-0.0166-0.38763 0-0.24242 0.01659-0.01655-0.02904-0.25856 0-0.24077 0.02904-0.14893 0.08505-0.38763 0.12986-0.2387 0.04439-0.15224-0.0585-0.38763 0-0.2358 0.0585-0.15596 0.05684-0.38763 0.12986-0.23167 0.0726-0.16092 0.04315-0.38763 0.12986-0.22712 0.08629-0.03723 0.02904-0.25856 0.12986-0.22132 0.09957-0.17251 0.01659-0.38763 0.12986-0.21512 0.11285-0.05047 0.134-0.25856 0.2593-0.20808 0.12529-0.1874-0.0083-0.38763 0.12986-0.20022 0.13774-0.0666 0.10994-0.25856 0.2593-0.19195 0.14935-0.07612 0.09874-0.25856 0.2593s-0.08563 0.08837-0.25856 0.2593c-0.17292 0.17093-0.09639 0.078-0.25856 0.2593s-0.10714 0.06887-0.25856 0.2593c-0.15141 0.19043-0.11914 0.1896-0.25856 0.38874-0.13941 0.19914-0.13114 0.05227-0.25856 0.2593-0.12742 0.20702-0.01241 0.04481-0.12948 0.2593-0.115 0.21449-0.02896 0.16802-0.12948 0.38874-0.10218 0.22113-0.16961 0.16222-0.25856 0.38874-0.08894 0.22652-0.05419 0.02904-0.12948 0.2593-0.07529 0.2315 0.06123 0.1535 0 0.38874-0.06123 0.23565-0.08191 0.15018-0.12948 0.38874-0.04716 0.23897 0.03309 0.1477 0 0.38874s-0.11087 0.14604-0.12948 0.38874c-0.01655 0.2427 0.0041 0.14562 0 0.38874-0.0041 0.24353-0.0083 0.14562 0 0.38874s-0.02482 0.01659 0 0.2593c0.02482 0.24229 0.09018 0.14852 0.12948 0.38874 0 0 4.1725 23.296 20.297 43.432a2.9762 2.9847 0 0 1 -1.9392 4.797c-25.614 2.8218-44.989 16.206-44.989 16.206-0.19526 0.14147-0.07198-0.0249-0.25856 0.12985-0.18657 0.15268-0.0815 0.0958-0.25856 0.2593-0.17706 0.16346-0.09143 0.0855-0.25856 0.2593-0.16713 0.17383-0.10177 0.0759-0.25856 0.25929-0.15679 0.18338-0.11294 0.19665-0.25856 0.38874s0.0041 0.0589-0.12948 0.2593c-0.13404 0.20038-0.13652 0.051-0.25856 0.25929-0.12204 0.20827-0.02068 0.17383-0.12948 0.38874-0.10963 0.2149-0.16175 0.0373-0.25856 0.2593-0.0968 0.22112-0.04592 0.16263-0.12948 0.38873-0.08357 0.22652-0.05916 0.15807-0.12948 0.38874-0.06991 0.23108 0.05626 0.15433 0 0.38874-0.05626 0.23482-0.08688 0.0207-0.12948 0.25929-0.04261 0.23773 0.02896 0.14936 0 0.38874-0.02896 0.2398-0.11501 0.14811-0.12948 0.38874-0.01241 0.24104 0 0.14769 0 0.38874 0 0.24145-0.01241 0.14811 0 0.38873 0.01241 0.24104 0.10094 0.14936 0.12948 0.38874 0.02896 0.2398-0.04261 0.15143 0 0.38874 0.04261 0.23772 0.07281 0.0249 0.12948 0.25929 0.05626 0.23482-0.06991 0.15807 0 0.38874 0.06991 0.23109 0.04592 0.16263 0.12948 0.38874 0.08357 0.22652 0.0331 0.16802 0.12948 0.38873 0.0968 0.22113 0.14893 0.0444 0.25856 0.2593 0.10963 0.21491 0.0083 0.18089 0.12948 0.38874 0.12204 0.20827 0.12452 0.0589 0.25856 0.25929s-0.01655 0.0672 0.12948 0.2593c0.14562 0.19209 0.10177 0.20578 0.25856 0.38874 0.15679 0.18337 0.09143 0.0855 0.25856 0.25929 0.16713 0.17384 0.0815 0.0958 0.25856 0.2593 0.17706 0.16346 0.07198 0.10662 0.25856 0.2593 0.18657 0.15267 0.06329-0.0125 0.25856 0.12985 0 0 19.261 13.278 44.859 16.076a2.9762 2.9847 0 0 1 2.0684 4.797c-16.124 20.13-20.296 43.43-20.296 43.43-0.03723 0.24021-0.10466 0.14687-0.12948 0.38874-0.02482 0.24229 0.0083 0.0166 0 0.2593-0.0083 0.24311-0.0041 0.14562 0 0.38873 0.0041 0.24353-0.01655 0.14604 0 0.38874s0.09639 0.1477 0.12948 0.38874-0.04716 0.15018 0 0.38873c0.04716 0.23897 0.06785 0.15351 0.12948 0.38874 0.06123 0.23565-0.07529 0.15765 0 0.38874 0.07529 0.2315 0.04137 0.0332 0.12948 0.2593 0.08894 0.22652 0.15637 0.16802 0.25856 0.38873 0.10218 0.22113 0.01241 0.17466 0.12948 0.38874 0.11501 0.21449 0.0017 0.0523 0.12948 0.2593 0.12742 0.20702 0.11914 0.0601 0.25856 0.25929 0.13941 0.19914 0.10714 0.19831 0.25856 0.38874 0.15141 0.19043 0.09639 0.078 0.25856 0.2593s0.08563 0.0884 0.25856 0.25929c0.17292 0.17093 0.07612 0.0987 0.25856 0.2593 0.18244 0.16056 0.0666 0.10994 0.25856 0.2593 0.19195 0.14935 0.05833 0.12155 0.25856 0.25929s0.17996 0.004 0.38763 0.12986c0.20809 0.12529 0.04344 0.14645 0.25856 0.25929 0.21512 0.11285 0.1663 0.029 0.38763 0.12986 0.22132 0.0996 0.0331 0.0431 0.25856 0.12985 0.22712 0.0863 0.15596 0.0568 0.38763 0.12986 0.23167 0.0726 0.15224 0.0709 0.38763 0.12986 0.2358 0.0585 0.14893-0.0444 0.38763 0s0.14686 0.0996 0.38763 0.12985c0.24077 0.029 0.01655-0.0166 0.25856 0 0.24242 0.0166 0.1452-0.001 0.38763 0 0.24284 0.001 0.1452 0.0125 0.38763 0 0.24242-0.0124 0.14645 0.029 0.38763 0s0.14893-0.0875 0.38763-0.12985c0 0 23.087-4.2017 43.179-20.355a2.9762 2.9847 0 0 1 4.7833 1.9447c2.813 25.668 16.16 45.118 16.16 45.118 0.14106 0.19582-0.0248 0.0722 0.12948 0.25929 0.15224 0.18711 0.0956 0.0817 0.25856 0.2593 0.16299 0.17757 0.0852 0.0917 0.25855 0.2593 0.17334 0.16761 0.0757 0.10206 0.25856 0.25929 0.18285 0.15724 0.19609 0.11326 0.38763 0.2593 0.19153 0.14604 0.0587-0.004 0.25855 0.12986 0.19981 0.13441 0.0509 0.1369 0.25856 0.25929 0.20767 0.12239 0.17333 0.0208 0.38762 0.12986 0.2143 0.10994 0.0372 0.16221 0.25856 0.25929 0.2205 0.0971 0.16217 0.0461 0.38763 0.12986 0.22587 0.0838 0.15761 0.0593 0.38762 0.12985 0.23043 0.0701 0.1539-0.0564 0.38763 0 0.23415 0.0564 0.0207 0.0871 0.25856 0.12986 0.23704 0.0427 0.14892-0.029 0.38762 0 0.23912 0.029 0.14769 0.11534 0.38763 0.12986 0.24035 0.0124 0.14727 0 0.38763 0 0.24076 0 0.14768 0.0124 0.38762 0 0.24036-0.0125 0.14893-0.10123 0.38763-0.12986 0.23911-0.029 0.151 0.0427 0.38763 0 0.23704-0.0427 0.0248-0.073 0.25855-0.12986 0.23415-0.0564 0.15762 0.0701 0.38763 0 0.23042-0.0701 0.16217-0.0461 0.38763-0.12985 0.22587-0.0838 0.16754-0.0332 0.38762-0.12986 0.2205-0.0971 0.0443-0.14935 0.25856-0.25929 0.21429-0.10994 0.18037-0.008 0.38763-0.12986 0.20767-0.12239 0.0587-0.12488 0.25855-0.25929 0.19981-0.13442 0.067 0.0166 0.25856-0.12986 0.19154-0.14604 0.20519-0.10206 0.38762-0.2593 0.18286-0.15723 0.0852-0.0917 0.25856-0.25929 0.17334-0.16761 0.0956-0.0817 0.25856-0.2593 0.16299-0.17757 0.10631-0.0722 0.25855-0.2593s-0.0124-0.0635 0.12949-0.25929c0 0 13.272-19.401 16.03-45.118a2.9762 2.9847 0 0 1 4.7833 -2.0744c20.124 16.249 43.308 20.484 43.308 20.484 0.24118 0.0431 0.14438 0.10123 0.38763 0.12985 0.24325 0.029 0.14313-0.0124 0.38762 0 0.24449 0.0125 0.14273 0.001 0.38763 0 0.2449-0.00099 0.14355 0.0166 0.38763 0 0.24449-0.0166 0.14479 0.029 0.38762 0 0.24325-0.029 0.0166-0.0846 0.25856-0.12985 0.24077-0.0452 0.15017 0.0593 0.38763 0 0.23745-0.0593 0.1543-0.056 0.38762-0.12986 0.23374-0.0738 0.15886-0.0419 0.38763-0.12986 0.22877-0.0875 0.16465-0.029 0.38763-0.12985 0.22298-0.10123 0.0418-0.14479 0.25855-0.2593 0.21678-0.1145 0.1783-0.002 0.38763-0.12985 0.20933-0.12737 0.0571-0.11949 0.25856-0.2593s0.19526 0.0207 0.38762-0.12985c0.19278-0.15185 0.0753-0.0963 0.25856-0.2593 0.18326-0.16305 0.0852-0.0855 0.25855-0.2593 0.17334-0.17383 0.096-0.0755 0.25856-0.25929 0.16258-0.18379 0.10715-0.066 0.25856-0.2593 0.15141-0.19333-0.008-0.18669 0.12948-0.38874 0.13941-0.20204 0.13155-0.0494 0.25856-0.25929 0.127-0.20993 0.0165-0.17176 0.12948-0.38874 0.11418-0.2174 0.15762-0.0373 0.25856-0.2593 0.10094-0.22361 0.0418-0.15931 0.12948-0.38873 0.0873-0.22943 0.0558-0.15475 0.12949-0.38874 0.0736-0.23441 0.0699-0.1506 0.12948-0.38874 0.0592-0.23855-0.0451-0.14728 0-0.38874 0.0451-0.24145 0.0989-0.0166 0.12949-0.25929 0.0289-0.24395-0.0165-0.14396 0-0.38874 0.0165-0.24519-0.001-0.14313 0-0.38874 0.00099-0.2456 0.0124-0.14354 0-0.38873-0.0124-0.2452 0.0289-0.1448 0-0.38874-0.029-0.24395-0.0865-0.14687-0.12949-0.38874 0 0-4.2836-23.173-20.426-43.302a2.9762 2.9847 0 0 1 2.0684 -4.797c25.617-2.7964 44.989-16.076 44.989-16.076 0.19526-0.14147 0.072 0.0249 0.25855-0.12986 0.18658-0.15267 0.0815-0.0958 0.25856-0.25929 0.17706-0.16346 0.0914-0.0855 0.25855-0.2593 0.16713-0.17383 0.10177-0.0759 0.25856-0.2593 0.15679-0.18337 0.11294-0.19665 0.25856-0.38873 0.14561-0.19209-0.004-0.0589 0.12948-0.2593 0.13404-0.20039 0.13652-0.051 0.25856-0.2593 0.12203-0.20826 0.0207-0.17383 0.12948-0.38873 0.10963-0.21491 0.16175-0.0373 0.25856-0.2593 0.0968-0.22113 0.0459-0.16263 0.12948-0.38874 0.0836-0.22652 0.0592-0.15807 0.12949-0.38874 0.0699-0.23108-0.0563-0.15433 0-0.38873 0.0563-0.23482 0.0869-0.0207 0.12948-0.2593 0.0426-0.23772-0.029-0.14935 0-0.38874 0.029-0.23979 0.11501-0.14811 0.12949-0.38873 0.0124-0.24105 0-0.1477 0-0.38874 0-0.24146 0.0124-0.14811 0-0.38874-0.0124-0.24104-0.10094-0.14935-0.12949-0.38873-0.029-0.2398 0.0426-0.15143 0-0.38874-0.0426-0.23773-0.0728-0.0249-0.12948-0.2593-0.0563-0.23482 0.0699-0.15807 0-0.38874-0.0699-0.23108-0.0459-0.16263-0.12949-0.38873-0.0836-0.22652-0.0331-0.16803-0.12948-0.38874-0.0968-0.22113-0.14893-0.0444-0.25856-0.2593s-0.008-0.18088-0.12948-0.38873c-0.12204-0.20827-0.12452-0.0589-0.25856-0.2593-0.13404-0.20038 0.0165-0.0672-0.12948-0.2593-0.14562-0.19208-0.10177-0.20577-0.25856-0.38873-0.15679-0.18338-0.0914-0.0855-0.25856-0.2593-0.16713-0.17383-0.0815-0.0958-0.25855-0.2593-0.17706-0.16346-0.072-0.10662-0.25856-0.25929-0.18657-0.15268-0.0633 0.0124-0.25855-0.12986 0 0-19.486-13.386-45.118-16.206a2.9762 2.9847 0 0 1 -1.9338 -4.8001c16.142-20.129 20.426-43.303 20.426-43.303 0.043-0.24187 0.10094-0.14479 0.12948-0.38874 0.029-0.24395-0.0124-0.14355 0-0.38874s0.001-0.14313 0-0.38874c-0.00099-0.2456 0.0165-0.14396 0-0.38874-0.0165-0.24519 0.029-0.14521 0-0.38874-0.029-0.24395-0.0844-0.01659-0.12948-0.2593-0.0451-0.24146 0.0592-0.1506 0-0.38874-0.0592-0.23855-0.0558-0.15475-0.12949-0.38874-0.0736-0.2344-0.0418-0.15931-0.12948-0.38874-0.0873-0.22942-0.029-0.16512-0.12949-0.38874-0.10094-0.22362-0.14437-0.0419-0.25855-0.2593-0.11418-0.21739-0.002-0.17881-0.12949-0.38874-0.127-0.20993-0.11914-0.05725-0.25855-0.2593-0.13941-0.20204 0.0207-0.19582-0.12949-0.38874-0.15141-0.19333-0.096-0.07551-0.25855-0.2593-0.16258-0.18379-0.0852-0.08546-0.25856-0.2593-0.17333-0.17383-0.0753-0.09625-0.25855-0.2593-0.18327-0.16304-0.0658-0.10745-0.25856-0.2593-0.19278-0.15184-0.18657 0.0083-0.38763-0.12986-0.20146-0.13981-0.0492-0.13193-0.25855-0.2593-0.20933-0.12737-0.17127-0.01659-0.38763-0.12986-0.21677-0.1145-0.0372-0.15807-0.25855-0.2593-0.22298-0.10123-0.15886-0.0419-0.38763-0.12986-0.22877-0.08754-0.15431-0.05601-0.38763-0.12986-0.23373-0.07385-0.15017-0.07011-0.38763-0.12986-0.23745-0.05933-0.14685 0.04522-0.38762 0s-0.0165-0.09915-0.25856-0.12986c-0.24325-0.02904-0.14355 0.01659-0.38762 0-0.24449-0.0166-0.14273 0.000996-0.38763 0-0.24491-0.000996-0.14314-0.01245-0.38763 0s-0.14438-0.02904-0.38762 0c-0.24325 0.02904-0.14645 0.08671-0.38763 0.12986 0 0-23.184 4.2357-43.308 20.484a2.9762 2.9847 0 0 1 -4.7833 -2.0744c-2.7733-25.673-16.03-44.988-16.03-44.988-0.1481-0.2091-0.0976-0.06016-0.25855-0.2593-0.16093-0.19914-0.0852-0.07053-0.25856-0.2593-0.17333-0.18877-0.074-0.21117-0.25855-0.38874-0.18451-0.17757-0.0633-0.09376-0.25856-0.2593-0.19526-0.16553-0.0534 0.02489-0.25855-0.12986-0.20519-0.15309-0.17334-0.11948-0.38763-0.2593-0.21471-0.13981-0.0372-0.13317-0.25856-0.2593-0.22298-0.12612-0.15761-0.0166-0.38762-0.12986-0.23043-0.1116-0.151-0.03319-0.38763-0.12986-0.23663-0.09708-0.14562-0.17715-0.38763-0.2593-0.24242-0.08214-0.14065 0.06638-0.38762 0-0.24698-0.06638-0.13735-0.07883-0.38763-0.12986-0.2507-0.05103-0.13445-0.09459-0.38763-0.12986-0.25359-0.03319-0.13279 0.02074-0.38762 0-0.25525-0.02074-0.13197 0.0029-0.38763 0-0.17044-0.0019-0.19857-0.003-0.25856 0-0.10011 0.0083-0.10218-0.0032-0.12948 0-0.029 0.0032-0.029-0.01245-0.12949 0z"/>
 <path id="path4008-1" style="opacity:.96694;stroke-width:2;color:#000000;stroke:url(#radialGradient4036-6);enable-background:new;fill:none" d="m113.24 10.256c-0.19939 0.02904-0.18988 0.09127-0.38762 0.12986-0.1994 0.03319-0.1903-0.04149-0.38763 0-0.19774 0.04149-0.0633 0.07841-0.25856 0.12986-0.19526 0.05103-0.0662-0.06099-0.25855 0-0.19237 0.06099-0.19857 0.05933-0.38763 0.12986-0.18905 0.07011-0.0732 0.0502-0.25855 0.12986-0.18534 0.07966-0.0774 0.04149-0.25856 0.12986-0.1812 0.08878-0.0819 0.03319-0.25856 0.12986-0.17664 0.0975-0.0869 0.02489-0.25855 0.12986-0.17168 0.10621-0.0922 0.14479-0.25856 0.2593-0.1663 0.1145-0.098 0.0083-0.25855 0.12986-0.16051 0.1228-0.10425 0.12861-0.25856 0.2593-0.1543 0.13068-0.11087-0.0083-0.25855 0.12986-0.14769 0.13815-0.11791 0.11409-0.25856 0.2593s0.004 0.10704-0.12948 0.2593c-0.13321 0.15226-0.13321-0.02904-0.25856 0.12986-0.12535 0.15848-0.0124 0.09459-0.12949 0.2593 0 0-13.344 19.338-16.16 44.988a2.9762 2.9847 0 0 1 -4.7833 1.9447c-20.094-16.153-43.181-20.355-43.181-20.355-0.23911-0.0419-0.14645-0.10206-0.38763-0.12986-0.24118-0.02904-0.1452 0.01245-0.38763 0-0.24242-0.01245-0.1452-0.0012-0.38763 0-0.24284 0.0012-0.14562-0.0166-0.38763 0-0.24242 0.01659-0.01655-0.02904-0.25856 0-0.24077 0.02904-0.14893 0.08505-0.38763 0.12986-0.2387 0.04439-0.15224-0.0585-0.38763 0-0.2358 0.0585-0.15596 0.05684-0.38763 0.12986-0.23167 0.0726-0.16092 0.04315-0.38763 0.12986-0.22712 0.08629-0.03723 0.02904-0.25856 0.12986-0.22132 0.09957-0.17251 0.01659-0.38763 0.12986-0.21512 0.11285-0.05047 0.134-0.25856 0.2593-0.20808 0.12529-0.1874-0.0083-0.38763 0.12986-0.20022 0.13774-0.0666 0.10994-0.25856 0.2593-0.19195 0.14935-0.07612 0.09874-0.25856 0.2593s-0.08563 0.08837-0.25856 0.2593c-0.17292 0.17093-0.09639 0.078-0.25856 0.2593s-0.10714 0.06887-0.25856 0.2593c-0.15141 0.19043-0.11914 0.1896-0.25856 0.38874-0.13941 0.19914-0.13114 0.05227-0.25856 0.2593-0.12742 0.20702-0.01241 0.04481-0.12948 0.2593-0.115 0.21449-0.02896 0.16802-0.12948 0.38874-0.10218 0.22113-0.16961 0.16222-0.25856 0.38874-0.08894 0.22652-0.05419 0.02904-0.12948 0.2593-0.07529 0.2315 0.06123 0.1535 0 0.38874-0.06123 0.23565-0.08191 0.15018-0.12948 0.38874-0.04716 0.23897 0.03309 0.1477 0 0.38874s-0.11087 0.14604-0.12948 0.38874c-0.01655 0.2427 0.0041 0.14562 0 0.38874-0.0041 0.24353-0.0083 0.14562 0 0.38874s-0.02482 0.01659 0 0.2593c0.02482 0.24229 0.09018 0.14852 0.12948 0.38874 0 0 4.1725 23.296 20.297 43.432a2.9762 2.9847 0 0 1 -1.9392 4.797c-25.614 2.8218-44.989 16.206-44.989 16.206-0.19526 0.14147-0.07198-0.0249-0.25856 0.12985-0.18657 0.15268-0.0815 0.0958-0.25856 0.2593-0.17706 0.16346-0.09143 0.0855-0.25856 0.2593-0.16713 0.17383-0.10177 0.0759-0.25856 0.25929-0.15679 0.18338-0.11294 0.19665-0.25856 0.38874s0.0041 0.0589-0.12948 0.2593c-0.13404 0.20038-0.13652 0.051-0.25856 0.25929-0.12204 0.20827-0.02068 0.17383-0.12948 0.38874-0.10963 0.2149-0.16175 0.0373-0.25856 0.2593-0.0968 0.22112-0.04592 0.16263-0.12948 0.38873-0.08357 0.22652-0.05916 0.15807-0.12948 0.38874-0.06991 0.23108 0.05626 0.15433 0 0.38874-0.05626 0.23482-0.08688 0.0207-0.12948 0.25929-0.04261 0.23773 0.02896 0.14936 0 0.38874-0.02896 0.2398-0.11501 0.14811-0.12948 0.38874-0.01241 0.24104 0 0.14769 0 0.38874 0 0.24145-0.01241 0.14811 0 0.38873 0.01241 0.24104 0.10094 0.14936 0.12948 0.38874 0.02896 0.2398-0.04261 0.15143 0 0.38874 0.04261 0.23772 0.07281 0.0249 0.12948 0.25929 0.05626 0.23482-0.06991 0.15807 0 0.38874 0.06991 0.23109 0.04592 0.16263 0.12948 0.38874 0.08357 0.22652 0.0331 0.16802 0.12948 0.38873 0.0968 0.22113 0.14893 0.0444 0.25856 0.2593 0.10963 0.21491 0.0083 0.18089 0.12948 0.38874 0.12204 0.20827 0.12452 0.0589 0.25856 0.25929s-0.01655 0.0672 0.12948 0.2593c0.14562 0.19209 0.10177 0.20578 0.25856 0.38874 0.15679 0.18337 0.09143 0.0855 0.25856 0.25929 0.16713 0.17384 0.0815 0.0958 0.25856 0.2593 0.17706 0.16346 0.07198 0.10662 0.25856 0.2593 0.18657 0.15267 0.06329-0.0125 0.25856 0.12985 0 0 19.261 13.278 44.859 16.076a2.9762 2.9847 0 0 1 2.0684 4.797c-16.124 20.13-20.296 43.43-20.296 43.43-0.03723 0.24021-0.10466 0.14687-0.12948 0.38874-0.02482 0.24229 0.0083 0.0166 0 0.2593-0.0083 0.24311-0.0041 0.14562 0 0.38873 0.0041 0.24353-0.01655 0.14604 0 0.38874s0.09639 0.1477 0.12948 0.38874-0.04716 0.15018 0 0.38873c0.04716 0.23897 0.06785 0.15351 0.12948 0.38874 0.06123 0.23565-0.07529 0.15765 0 0.38874 0.07529 0.2315 0.04137 0.0332 0.12948 0.2593 0.08894 0.22652 0.15637 0.16802 0.25856 0.38873 0.10218 0.22113 0.01241 0.17466 0.12948 0.38874 0.11501 0.21449 0.0017 0.0523 0.12948 0.2593 0.12742 0.20702 0.11914 0.0601 0.25856 0.25929 0.13941 0.19914 0.10714 0.19831 0.25856 0.38874 0.15141 0.19043 0.09639 0.078 0.25856 0.2593s0.08563 0.0884 0.25856 0.25929c0.17292 0.17093 0.07612 0.0987 0.25856 0.2593 0.18244 0.16056 0.0666 0.10994 0.25856 0.2593 0.19195 0.14935 0.05833 0.12155 0.25856 0.25929s0.17996 0.004 0.38763 0.12986c0.20809 0.12529 0.04344 0.14645 0.25856 0.25929 0.21512 0.11285 0.1663 0.029 0.38763 0.12986 0.22132 0.0996 0.0331 0.0431 0.25856 0.12985 0.22712 0.0863 0.15596 0.0568 0.38763 0.12986 0.23167 0.0726 0.15224 0.0709 0.38763 0.12986 0.2358 0.0585 0.14893-0.0444 0.38763 0s0.14686 0.0996 0.38763 0.12985c0.24077 0.029 0.01655-0.0166 0.25856 0 0.24242 0.0166 0.1452-0.001 0.38763 0 0.24284 0.001 0.1452 0.0125 0.38763 0 0.24242-0.0124 0.14645 0.029 0.38763 0s0.14893-0.0875 0.38763-0.12985c0 0 23.087-4.2017 43.179-20.355a2.9762 2.9847 0 0 1 4.7833 1.9447c2.813 25.668 16.16 45.118 16.16 45.118 0.14106 0.19582-0.0248 0.0722 0.12948 0.25929 0.15224 0.18711 0.0956 0.0817 0.25856 0.2593 0.16299 0.17757 0.0852 0.0917 0.25855 0.2593 0.17334 0.16761 0.0757 0.10206 0.25856 0.25929 0.18285 0.15724 0.19609 0.11326 0.38763 0.2593 0.19153 0.14604 0.0587-0.004 0.25855 0.12986 0.19981 0.13441 0.0509 0.1369 0.25856 0.25929 0.20767 0.12239 0.17333 0.0208 0.38762 0.12986 0.2143 0.10994 0.0372 0.16221 0.25856 0.25929 0.2205 0.0971 0.16217 0.0461 0.38763 0.12986 0.22587 0.0838 0.15761 0.0593 0.38762 0.12985 0.23043 0.0701 0.1539-0.0564 0.38763 0 0.23415 0.0564 0.0207 0.0871 0.25856 0.12986 0.23704 0.0427 0.14892-0.029 0.38762 0 0.23912 0.029 0.14769 0.11534 0.38763 0.12986 0.24035 0.0124 0.14727 0 0.38763 0 0.24076 0 0.14768 0.0124 0.38762 0 0.24036-0.0125 0.14893-0.10123 0.38763-0.12986 0.23911-0.029 0.151 0.0427 0.38763 0 0.23704-0.0427 0.0248-0.073 0.25855-0.12986 0.23415-0.0564 0.15762 0.0701 0.38763 0 0.23042-0.0701 0.16217-0.0461 0.38763-0.12985 0.22587-0.0838 0.16754-0.0332 0.38762-0.12986 0.2205-0.0971 0.0443-0.14935 0.25856-0.25929 0.21429-0.10994 0.18037-0.008 0.38763-0.12986 0.20767-0.12239 0.0587-0.12488 0.25855-0.25929 0.19981-0.13442 0.067 0.0166 0.25856-0.12986 0.19154-0.14604 0.20519-0.10206 0.38762-0.2593 0.18286-0.15723 0.0852-0.0917 0.25856-0.25929 0.17334-0.16761 0.0956-0.0817 0.25856-0.2593 0.16299-0.17757 0.10631-0.0722 0.25855-0.2593s-0.0124-0.0635 0.12949-0.25929c0 0 13.272-19.401 16.03-45.118a2.9762 2.9847 0 0 1 4.7833 -2.0744c20.124 16.249 43.308 20.484 43.308 20.484 0.24118 0.0431 0.14438 0.10123 0.38763 0.12985 0.24325 0.029 0.14313-0.0124 0.38762 0 0.24449 0.0125 0.14273 0.001 0.38763 0 0.2449-0.00099 0.14355 0.0166 0.38763 0 0.24449-0.0166 0.14479 0.029 0.38762 0 0.24325-0.029 0.0166-0.0846 0.25856-0.12985 0.24077-0.0452 0.15017 0.0593 0.38763 0 0.23745-0.0593 0.1543-0.056 0.38762-0.12986 0.23374-0.0738 0.15886-0.0419 0.38763-0.12986 0.22877-0.0875 0.16465-0.029 0.38763-0.12985 0.22298-0.10123 0.0418-0.14479 0.25855-0.2593 0.21678-0.1145 0.1783-0.002 0.38763-0.12985 0.20933-0.12737 0.0571-0.11949 0.25856-0.2593s0.19526 0.0207 0.38762-0.12985c0.19278-0.15185 0.0753-0.0963 0.25856-0.2593 0.18326-0.16305 0.0852-0.0855 0.25855-0.2593 0.17334-0.17383 0.096-0.0755 0.25856-0.25929 0.16258-0.18379 0.10715-0.066 0.25856-0.2593 0.15141-0.19333-0.008-0.18669 0.12948-0.38874 0.13941-0.20204 0.13155-0.0494 0.25856-0.25929 0.127-0.20993 0.0165-0.17176 0.12948-0.38874 0.11418-0.2174 0.15762-0.0373 0.25856-0.2593 0.10094-0.22361 0.0418-0.15931 0.12948-0.38873 0.0873-0.22943 0.0558-0.15475 0.12949-0.38874 0.0736-0.23441 0.0699-0.1506 0.12948-0.38874 0.0592-0.23855-0.0451-0.14728 0-0.38874 0.0451-0.24145 0.0989-0.0166 0.12949-0.25929 0.0289-0.24395-0.0165-0.14396 0-0.38874 0.0165-0.24519-0.001-0.14313 0-0.38874 0.00099-0.2456 0.0124-0.14354 0-0.38873-0.0124-0.2452 0.0289-0.1448 0-0.38874-0.029-0.24395-0.0865-0.14687-0.12949-0.38874 0 0-4.2836-23.173-20.426-43.302a2.9762 2.9847 0 0 1 2.0684 -4.797c25.617-2.7964 44.989-16.076 44.989-16.076 0.19526-0.14147 0.072 0.0249 0.25855-0.12986 0.18658-0.15267 0.0815-0.0958 0.25856-0.25929 0.17706-0.16346 0.0914-0.0855 0.25855-0.2593 0.16713-0.17383 0.10177-0.0759 0.25856-0.2593 0.15679-0.18337 0.11294-0.19665 0.25856-0.38873 0.14561-0.19209-0.004-0.0589 0.12948-0.2593 0.13404-0.20039 0.13652-0.051 0.25856-0.2593 0.12203-0.20826 0.0207-0.17383 0.12948-0.38873 0.10963-0.21491 0.16175-0.0373 0.25856-0.2593 0.0968-0.22113 0.0459-0.16263 0.12948-0.38874 0.0836-0.22652 0.0592-0.15807 0.12949-0.38874 0.0699-0.23108-0.0563-0.15433 0-0.38873 0.0563-0.23482 0.0869-0.0207 0.12948-0.2593 0.0426-0.23772-0.029-0.14935 0-0.38874 0.029-0.23979 0.11501-0.14811 0.12949-0.38873 0.0124-0.24105 0-0.1477 0-0.38874 0-0.24146 0.0124-0.14811 0-0.38874-0.0124-0.24104-0.10094-0.14935-0.12949-0.38873-0.029-0.2398 0.0426-0.15143 0-0.38874-0.0426-0.23773-0.0728-0.0249-0.12948-0.2593-0.0563-0.23482 0.0699-0.15807 0-0.38874-0.0699-0.23108-0.0459-0.16263-0.12949-0.38873-0.0836-0.22652-0.0331-0.16803-0.12948-0.38874-0.0968-0.22113-0.14893-0.0444-0.25856-0.2593s-0.008-0.18088-0.12948-0.38873c-0.12204-0.20827-0.12452-0.0589-0.25856-0.2593-0.13404-0.20038 0.0165-0.0672-0.12948-0.2593-0.14562-0.19208-0.10177-0.20577-0.25856-0.38873-0.15679-0.18338-0.0914-0.0855-0.25856-0.2593-0.16713-0.17383-0.0815-0.0958-0.25855-0.2593-0.17706-0.16346-0.072-0.10662-0.25856-0.25929-0.18657-0.15268-0.0633 0.0124-0.25855-0.12986 0 0-19.486-13.386-45.118-16.206a2.9762 2.9847 0 0 1 -1.9338 -4.8001c16.142-20.129 20.426-43.303 20.426-43.303 0.043-0.24187 0.10094-0.14479 0.12948-0.38874 0.029-0.24395-0.0124-0.14355 0-0.38874s0.001-0.14313 0-0.38874c-0.00099-0.2456 0.0165-0.14396 0-0.38874-0.0165-0.24519 0.029-0.14521 0-0.38874-0.029-0.24395-0.0844-0.01659-0.12948-0.2593-0.0451-0.24146 0.0592-0.1506 0-0.38874-0.0592-0.23855-0.0558-0.15475-0.12949-0.38874-0.0736-0.2344-0.0418-0.15931-0.12948-0.38874-0.0873-0.22942-0.029-0.16512-0.12949-0.38874-0.10094-0.22362-0.14437-0.0419-0.25855-0.2593-0.11418-0.21739-0.002-0.17881-0.12949-0.38874-0.127-0.20993-0.11914-0.05725-0.25855-0.2593-0.13941-0.20204 0.0207-0.19582-0.12949-0.38874-0.15141-0.19333-0.096-0.07551-0.25855-0.2593-0.16258-0.18379-0.0852-0.08546-0.25856-0.2593-0.17333-0.17383-0.0753-0.09625-0.25855-0.2593-0.18327-0.16304-0.0658-0.10745-0.25856-0.2593-0.19278-0.15184-0.18657 0.0083-0.38763-0.12986-0.20146-0.13981-0.0492-0.13193-0.25855-0.2593-0.20933-0.12737-0.17127-0.01659-0.38763-0.12986-0.21677-0.1145-0.0372-0.15807-0.25855-0.2593-0.22298-0.10123-0.15886-0.0419-0.38763-0.12986-0.22877-0.08754-0.15431-0.05601-0.38763-0.12986-0.23373-0.07385-0.15017-0.07011-0.38763-0.12986-0.23745-0.05933-0.14685 0.04522-0.38762 0s-0.0165-0.09915-0.25856-0.12986c-0.24325-0.02904-0.14355 0.01659-0.38762 0-0.24449-0.0166-0.14273 0.000996-0.38763 0-0.24491-0.000996-0.14314-0.01245-0.38763 0s-0.14438-0.02904-0.38762 0c-0.24325 0.02904-0.14645 0.08671-0.38763 0.12986 0 0-23.184 4.2357-43.308 20.484a2.9762 2.9847 0 0 1 -4.7833 -2.0744c-2.7733-25.673-16.03-44.988-16.03-44.988-0.1481-0.2091-0.0976-0.06016-0.25855-0.2593-0.16093-0.19914-0.0852-0.07053-0.25856-0.2593-0.17333-0.18877-0.074-0.21117-0.25855-0.38874-0.18451-0.17757-0.0633-0.09376-0.25856-0.2593-0.19526-0.16553-0.0534 0.02489-0.25855-0.12986-0.20519-0.15309-0.17334-0.11948-0.38763-0.2593-0.21471-0.13981-0.0372-0.13317-0.25856-0.2593-0.22298-0.12612-0.15761-0.0166-0.38762-0.12986-0.23043-0.1116-0.151-0.03319-0.38763-0.12986-0.23663-0.09708-0.14562-0.17715-0.38763-0.2593-0.24242-0.08214-0.14065 0.06638-0.38762 0-0.24698-0.06638-0.13735-0.07883-0.38763-0.12986-0.2507-0.05103-0.13445-0.09459-0.38763-0.12986-0.25359-0.03319-0.13279 0.02074-0.38762 0-0.25525-0.02074-0.13197 0.0029-0.38763 0-0.17044-0.0019-0.19857-0.003-0.25856 0-0.10011 0.0083-0.10218-0.0032-0.12948 0-0.029 0.0032-0.029-0.01245-0.12949 0z"/>
 <path id="path4008-0" style="opacity:.96694;stroke-width:2;color:#000000;stroke:url(#radialGradient4036-3);enable-background:new;fill:none" d="m113.24 10.256c-0.19939 0.02904-0.18988 0.09127-0.38762 0.12986-0.1994 0.03319-0.1903-0.04149-0.38763 0-0.19774 0.04149-0.0633 0.07841-0.25856 0.12986-0.19526 0.05103-0.0662-0.06099-0.25855 0-0.19237 0.06099-0.19857 0.05933-0.38763 0.12986-0.18905 0.07011-0.0732 0.0502-0.25855 0.12986-0.18534 0.07966-0.0774 0.04149-0.25856 0.12986-0.1812 0.08878-0.0819 0.03319-0.25856 0.12986-0.17664 0.0975-0.0869 0.02489-0.25855 0.12986-0.17168 0.10621-0.0922 0.14479-0.25856 0.2593-0.1663 0.1145-0.098 0.0083-0.25855 0.12986-0.16051 0.1228-0.10425 0.12861-0.25856 0.2593-0.1543 0.13068-0.11087-0.0083-0.25855 0.12986-0.14769 0.13815-0.11791 0.11409-0.25856 0.2593s0.004 0.10704-0.12948 0.2593c-0.13321 0.15226-0.13321-0.02904-0.25856 0.12986-0.12535 0.15848-0.0124 0.09459-0.12949 0.2593 0 0-13.344 19.338-16.16 44.988a2.9762 2.9847 0 0 1 -4.7833 1.9447c-20.094-16.153-43.181-20.355-43.181-20.355-0.23911-0.0419-0.14645-0.10206-0.38763-0.12986-0.24118-0.02904-0.1452 0.01245-0.38763 0-0.24242-0.01245-0.1452-0.0012-0.38763 0-0.24284 0.0012-0.14562-0.0166-0.38763 0-0.24242 0.01659-0.01655-0.02904-0.25856 0-0.24077 0.02904-0.14893 0.08505-0.38763 0.12986-0.2387 0.04439-0.15224-0.0585-0.38763 0-0.2358 0.0585-0.15596 0.05684-0.38763 0.12986-0.23167 0.0726-0.16092 0.04315-0.38763 0.12986-0.22712 0.08629-0.03723 0.02904-0.25856 0.12986-0.22132 0.09957-0.17251 0.01659-0.38763 0.12986-0.21512 0.11285-0.05047 0.134-0.25856 0.2593-0.20808 0.12529-0.1874-0.0083-0.38763 0.12986-0.20022 0.13774-0.0666 0.10994-0.25856 0.2593-0.19195 0.14935-0.07612 0.09874-0.25856 0.2593s-0.08563 0.08837-0.25856 0.2593c-0.17292 0.17093-0.09639 0.078-0.25856 0.2593s-0.10714 0.06887-0.25856 0.2593c-0.15141 0.19043-0.11914 0.1896-0.25856 0.38874-0.13941 0.19914-0.13114 0.05227-0.25856 0.2593-0.12742 0.20702-0.01241 0.04481-0.12948 0.2593-0.115 0.21449-0.02896 0.16802-0.12948 0.38874-0.10218 0.22113-0.16961 0.16222-0.25856 0.38874-0.08894 0.22652-0.05419 0.02904-0.12948 0.2593-0.07529 0.2315 0.06123 0.1535 0 0.38874-0.06123 0.23565-0.08191 0.15018-0.12948 0.38874-0.04716 0.23897 0.03309 0.1477 0 0.38874s-0.11087 0.14604-0.12948 0.38874c-0.01655 0.2427 0.0041 0.14562 0 0.38874-0.0041 0.24353-0.0083 0.14562 0 0.38874s-0.02482 0.01659 0 0.2593c0.02482 0.24229 0.09018 0.14852 0.12948 0.38874 0 0 4.1725 23.296 20.297 43.432a2.9762 2.9847 0 0 1 -1.9392 4.797c-25.614 2.8218-44.989 16.206-44.989 16.206-0.19526 0.14147-0.07198-0.0249-0.25856 0.12985-0.18657 0.15268-0.0815 0.0958-0.25856 0.2593-0.17706 0.16346-0.09143 0.0855-0.25856 0.2593-0.16713 0.17383-0.10177 0.0759-0.25856 0.25929-0.15679 0.18338-0.11294 0.19665-0.25856 0.38874s0.0041 0.0589-0.12948 0.2593c-0.13404 0.20038-0.13652 0.051-0.25856 0.25929-0.12204 0.20827-0.02068 0.17383-0.12948 0.38874-0.10963 0.2149-0.16175 0.0373-0.25856 0.2593-0.0968 0.22112-0.04592 0.16263-0.12948 0.38873-0.08357 0.22652-0.05916 0.15807-0.12948 0.38874-0.06991 0.23108 0.05626 0.15433 0 0.38874-0.05626 0.23482-0.08688 0.0207-0.12948 0.25929-0.04261 0.23773 0.02896 0.14936 0 0.38874-0.02896 0.2398-0.11501 0.14811-0.12948 0.38874-0.01241 0.24104 0 0.14769 0 0.38874 0 0.24145-0.01241 0.14811 0 0.38873 0.01241 0.24104 0.10094 0.14936 0.12948 0.38874 0.02896 0.2398-0.04261 0.15143 0 0.38874 0.04261 0.23772 0.07281 0.0249 0.12948 0.25929 0.05626 0.23482-0.06991 0.15807 0 0.38874 0.06991 0.23109 0.04592 0.16263 0.12948 0.38874 0.08357 0.22652 0.0331 0.16802 0.12948 0.38873 0.0968 0.22113 0.14893 0.0444 0.25856 0.2593 0.10963 0.21491 0.0083 0.18089 0.12948 0.38874 0.12204 0.20827 0.12452 0.0589 0.25856 0.25929s-0.01655 0.0672 0.12948 0.2593c0.14562 0.19209 0.10177 0.20578 0.25856 0.38874 0.15679 0.18337 0.09143 0.0855 0.25856 0.25929 0.16713 0.17384 0.0815 0.0958 0.25856 0.2593 0.17706 0.16346 0.07198 0.10662 0.25856 0.2593 0.18657 0.15267 0.06329-0.0125 0.25856 0.12985 0 0 19.261 13.278 44.859 16.076a2.9762 2.9847 0 0 1 2.0684 4.797c-16.124 20.13-20.296 43.43-20.296 43.43-0.03723 0.24021-0.10466 0.14687-0.12948 0.38874-0.02482 0.24229 0.0083 0.0166 0 0.2593-0.0083 0.24311-0.0041 0.14562 0 0.38873 0.0041 0.24353-0.01655 0.14604 0 0.38874s0.09639 0.1477 0.12948 0.38874-0.04716 0.15018 0 0.38873c0.04716 0.23897 0.06785 0.15351 0.12948 0.38874 0.06123 0.23565-0.07529 0.15765 0 0.38874 0.07529 0.2315 0.04137 0.0332 0.12948 0.2593 0.08894 0.22652 0.15637 0.16802 0.25856 0.38873 0.10218 0.22113 0.01241 0.17466 0.12948 0.38874 0.11501 0.21449 0.0017 0.0523 0.12948 0.2593 0.12742 0.20702 0.11914 0.0601 0.25856 0.25929 0.13941 0.19914 0.10714 0.19831 0.25856 0.38874 0.15141 0.19043 0.09639 0.078 0.25856 0.2593s0.08563 0.0884 0.25856 0.25929c0.17292 0.17093 0.07612 0.0987 0.25856 0.2593 0.18244 0.16056 0.0666 0.10994 0.25856 0.2593 0.19195 0.14935 0.05833 0.12155 0.25856 0.25929s0.17996 0.004 0.38763 0.12986c0.20809 0.12529 0.04344 0.14645 0.25856 0.25929 0.21512 0.11285 0.1663 0.029 0.38763 0.12986 0.22132 0.0996 0.0331 0.0431 0.25856 0.12985 0.22712 0.0863 0.15596 0.0568 0.38763 0.12986 0.23167 0.0726 0.15224 0.0709 0.38763 0.12986 0.2358 0.0585 0.14893-0.0444 0.38763 0s0.14686 0.0996 0.38763 0.12985c0.24077 0.029 0.01655-0.0166 0.25856 0 0.24242 0.0166 0.1452-0.001 0.38763 0 0.24284 0.001 0.1452 0.0125 0.38763 0 0.24242-0.0124 0.14645 0.029 0.38763 0s0.14893-0.0875 0.38763-0.12985c0 0 23.087-4.2017 43.179-20.355a2.9762 2.9847 0 0 1 4.7833 1.9447c2.813 25.668 16.16 45.118 16.16 45.118 0.14106 0.19582-0.0248 0.0722 0.12948 0.25929 0.15224 0.18711 0.0956 0.0817 0.25856 0.2593 0.16299 0.17757 0.0852 0.0917 0.25855 0.2593 0.17334 0.16761 0.0757 0.10206 0.25856 0.25929 0.18285 0.15724 0.19609 0.11326 0.38763 0.2593 0.19153 0.14604 0.0587-0.004 0.25855 0.12986 0.19981 0.13441 0.0509 0.1369 0.25856 0.25929 0.20767 0.12239 0.17333 0.0208 0.38762 0.12986 0.2143 0.10994 0.0372 0.16221 0.25856 0.25929 0.2205 0.0971 0.16217 0.0461 0.38763 0.12986 0.22587 0.0838 0.15761 0.0593 0.38762 0.12985 0.23043 0.0701 0.1539-0.0564 0.38763 0 0.23415 0.0564 0.0207 0.0871 0.25856 0.12986 0.23704 0.0427 0.14892-0.029 0.38762 0 0.23912 0.029 0.14769 0.11534 0.38763 0.12986 0.24035 0.0124 0.14727 0 0.38763 0 0.24076 0 0.14768 0.0124 0.38762 0 0.24036-0.0125 0.14893-0.10123 0.38763-0.12986 0.23911-0.029 0.151 0.0427 0.38763 0 0.23704-0.0427 0.0248-0.073 0.25855-0.12986 0.23415-0.0564 0.15762 0.0701 0.38763 0 0.23042-0.0701 0.16217-0.0461 0.38763-0.12985 0.22587-0.0838 0.16754-0.0332 0.38762-0.12986 0.2205-0.0971 0.0443-0.14935 0.25856-0.25929 0.21429-0.10994 0.18037-0.008 0.38763-0.12986 0.20767-0.12239 0.0587-0.12488 0.25855-0.25929 0.19981-0.13442 0.067 0.0166 0.25856-0.12986 0.19154-0.14604 0.20519-0.10206 0.38762-0.2593 0.18286-0.15723 0.0852-0.0917 0.25856-0.25929 0.17334-0.16761 0.0956-0.0817 0.25856-0.2593 0.16299-0.17757 0.10631-0.0722 0.25855-0.2593s-0.0124-0.0635 0.12949-0.25929c0 0 13.272-19.401 16.03-45.118a2.9762 2.9847 0 0 1 4.7833 -2.0744c20.124 16.249 43.308 20.484 43.308 20.484 0.24118 0.0431 0.14438 0.10123 0.38763 0.12985 0.24325 0.029 0.14313-0.0124 0.38762 0 0.24449 0.0125 0.14273 0.001 0.38763 0 0.2449-0.00099 0.14355 0.0166 0.38763 0 0.24449-0.0166 0.14479 0.029 0.38762 0 0.24325-0.029 0.0166-0.0846 0.25856-0.12985 0.24077-0.0452 0.15017 0.0593 0.38763 0 0.23745-0.0593 0.1543-0.056 0.38762-0.12986 0.23374-0.0738 0.15886-0.0419 0.38763-0.12986 0.22877-0.0875 0.16465-0.029 0.38763-0.12985 0.22298-0.10123 0.0418-0.14479 0.25855-0.2593 0.21678-0.1145 0.1783-0.002 0.38763-0.12985 0.20933-0.12737 0.0571-0.11949 0.25856-0.2593s0.19526 0.0207 0.38762-0.12985c0.19278-0.15185 0.0753-0.0963 0.25856-0.2593 0.18326-0.16305 0.0852-0.0855 0.25855-0.2593 0.17334-0.17383 0.096-0.0755 0.25856-0.25929 0.16258-0.18379 0.10715-0.066 0.25856-0.2593 0.15141-0.19333-0.008-0.18669 0.12948-0.38874 0.13941-0.20204 0.13155-0.0494 0.25856-0.25929 0.127-0.20993 0.0165-0.17176 0.12948-0.38874 0.11418-0.2174 0.15762-0.0373 0.25856-0.2593 0.10094-0.22361 0.0418-0.15931 0.12948-0.38873 0.0873-0.22943 0.0558-0.15475 0.12949-0.38874 0.0736-0.23441 0.0699-0.1506 0.12948-0.38874 0.0592-0.23855-0.0451-0.14728 0-0.38874 0.0451-0.24145 0.0989-0.0166 0.12949-0.25929 0.0289-0.24395-0.0165-0.14396 0-0.38874 0.0165-0.24519-0.001-0.14313 0-0.38874 0.00099-0.2456 0.0124-0.14354 0-0.38873-0.0124-0.2452 0.0289-0.1448 0-0.38874-0.029-0.24395-0.0865-0.14687-0.12949-0.38874 0 0-4.2836-23.173-20.426-43.302a2.9762 2.9847 0 0 1 2.0684 -4.797c25.617-2.7964 44.989-16.076 44.989-16.076 0.19526-0.14147 0.072 0.0249 0.25855-0.12986 0.18658-0.15267 0.0815-0.0958 0.25856-0.25929 0.17706-0.16346 0.0914-0.0855 0.25855-0.2593 0.16713-0.17383 0.10177-0.0759 0.25856-0.2593 0.15679-0.18337 0.11294-0.19665 0.25856-0.38873 0.14561-0.19209-0.004-0.0589 0.12948-0.2593 0.13404-0.20039 0.13652-0.051 0.25856-0.2593 0.12203-0.20826 0.0207-0.17383 0.12948-0.38873 0.10963-0.21491 0.16175-0.0373 0.25856-0.2593 0.0968-0.22113 0.0459-0.16263 0.12948-0.38874 0.0836-0.22652 0.0592-0.15807 0.12949-0.38874 0.0699-0.23108-0.0563-0.15433 0-0.38873 0.0563-0.23482 0.0869-0.0207 0.12948-0.2593 0.0426-0.23772-0.029-0.14935 0-0.38874 0.029-0.23979 0.11501-0.14811 0.12949-0.38873 0.0124-0.24105 0-0.1477 0-0.38874 0-0.24146 0.0124-0.14811 0-0.38874-0.0124-0.24104-0.10094-0.14935-0.12949-0.38873-0.029-0.2398 0.0426-0.15143 0-0.38874-0.0426-0.23773-0.0728-0.0249-0.12948-0.2593-0.0563-0.23482 0.0699-0.15807 0-0.38874-0.0699-0.23108-0.0459-0.16263-0.12949-0.38873-0.0836-0.22652-0.0331-0.16803-0.12948-0.38874-0.0968-0.22113-0.14893-0.0444-0.25856-0.2593s-0.008-0.18088-0.12948-0.38873c-0.12204-0.20827-0.12452-0.0589-0.25856-0.2593-0.13404-0.20038 0.0165-0.0672-0.12948-0.2593-0.14562-0.19208-0.10177-0.20577-0.25856-0.38873-0.15679-0.18338-0.0914-0.0855-0.25856-0.2593-0.16713-0.17383-0.0815-0.0958-0.25855-0.2593-0.17706-0.16346-0.072-0.10662-0.25856-0.25929-0.18657-0.15268-0.0633 0.0124-0.25855-0.12986 0 0-19.486-13.386-45.118-16.206a2.9762 2.9847 0 0 1 -1.9338 -4.8001c16.142-20.129 20.426-43.303 20.426-43.303 0.043-0.24187 0.10094-0.14479 0.12948-0.38874 0.029-0.24395-0.0124-0.14355 0-0.38874s0.001-0.14313 0-0.38874c-0.00099-0.2456 0.0165-0.14396 0-0.38874-0.0165-0.24519 0.029-0.14521 0-0.38874-0.029-0.24395-0.0844-0.01659-0.12948-0.2593-0.0451-0.24146 0.0592-0.1506 0-0.38874-0.0592-0.23855-0.0558-0.15475-0.12949-0.38874-0.0736-0.2344-0.0418-0.15931-0.12948-0.38874-0.0873-0.22942-0.029-0.16512-0.12949-0.38874-0.10094-0.22362-0.14437-0.0419-0.25855-0.2593-0.11418-0.21739-0.002-0.17881-0.12949-0.38874-0.127-0.20993-0.11914-0.05725-0.25855-0.2593-0.13941-0.20204 0.0207-0.19582-0.12949-0.38874-0.15141-0.19333-0.096-0.07551-0.25855-0.2593-0.16258-0.18379-0.0852-0.08546-0.25856-0.2593-0.17333-0.17383-0.0753-0.09625-0.25855-0.2593-0.18327-0.16304-0.0658-0.10745-0.25856-0.2593-0.19278-0.15184-0.18657 0.0083-0.38763-0.12986-0.20146-0.13981-0.0492-0.13193-0.25855-0.2593-0.20933-0.12737-0.17127-0.01659-0.38763-0.12986-0.21677-0.1145-0.0372-0.15807-0.25855-0.2593-0.22298-0.10123-0.15886-0.0419-0.38763-0.12986-0.22877-0.08754-0.15431-0.05601-0.38763-0.12986-0.23373-0.07385-0.15017-0.07011-0.38763-0.12986-0.23745-0.05933-0.14685 0.04522-0.38762 0s-0.0165-0.09915-0.25856-0.12986c-0.24325-0.02904-0.14355 0.01659-0.38762 0-0.24449-0.0166-0.14273 0.000996-0.38763 0-0.24491-0.000996-0.14314-0.01245-0.38763 0s-0.14438-0.02904-0.38762 0c-0.24325 0.02904-0.14645 0.08671-0.38763 0.12986 0 0-23.184 4.2357-43.308 20.484a2.9762 2.9847 0 0 1 -4.7833 -2.0744c-2.7733-25.673-16.03-44.988-16.03-44.988-0.1481-0.2091-0.0976-0.06016-0.25855-0.2593-0.16093-0.19914-0.0852-0.07053-0.25856-0.2593-0.17333-0.18877-0.074-0.21117-0.25855-0.38874-0.18451-0.17757-0.0633-0.09376-0.25856-0.2593-0.19526-0.16553-0.0534 0.02489-0.25855-0.12986-0.20519-0.15309-0.17334-0.11948-0.38763-0.2593-0.21471-0.13981-0.0372-0.13317-0.25856-0.2593-0.22298-0.12612-0.15761-0.0166-0.38762-0.12986-0.23043-0.1116-0.151-0.03319-0.38763-0.12986-0.23663-0.09708-0.14562-0.17715-0.38763-0.2593-0.24242-0.08214-0.14065 0.06638-0.38762 0-0.24698-0.06638-0.13735-0.07883-0.38763-0.12986-0.2507-0.05103-0.13445-0.09459-0.38763-0.12986-0.25359-0.03319-0.13279 0.02074-0.38762 0-0.25525-0.02074-0.13197 0.0029-0.38763 0-0.17044-0.0019-0.19857-0.003-0.25856 0-0.10011 0.0083-0.10218-0.0032-0.12948 0-0.029 0.0032-0.029-0.01245-0.12949 0z"/>
</svg>
