<?xml version="1.0" encoding="UTF-8" standalone="no"?>
<!-- Generator: Adobe Illustrator 16.0.0, SVG Export Plug-In . SVG Version: 6.00 Build 0)  -->

<svg
   xmlns:dc="http://purl.org/dc/elements/1.1/"
   xmlns:cc="http://creativecommons.org/ns#"
   xmlns:rdf="http://www.w3.org/1999/02/22-rdf-syntax-ns#"
   xmlns:svg="http://www.w3.org/2000/svg"
   xmlns="http://www.w3.org/2000/svg"
   xmlns:sodipodi="http://sodipodi.sourceforge.net/DTD/sodipodi-0.dtd"
   xmlns:inkscape="http://www.inkscape.org/namespaces/inkscape"
   version="1.1"
   id="Layer_6"
   x="0px"
   y="0px"
   width="100px"
   height="100px"
   viewBox="0 0 100 100"
   enable-background="new 0 0 100 100"
   xml:space="preserve"
   inkscape:version="0.48.4 r9939"
   sodipodi:docname="spreadsheetTwoTabs.svg"><metadata
     id="metadata9"><rdf:RDF><cc:Work
         rdf:about=""><dc:format>image/svg+xml</dc:format><dc:type
           rdf:resource="http://purl.org/dc/dcmitype/StillImage" /><dc:title></dc:title></cc:Work></rdf:RDF></metadata><defs
     id="defs7" /><sodipodi:namedview
     pagecolor="#ffffff"
     bordercolor="#666666"
     borderopacity="1"
     objecttolerance="10"
     gridtolerance="10"
     guidetolerance="10"
     inkscape:pageopacity="0"
     inkscape:pageshadow="2"
     inkscape:window-width="1199"
     inkscape:window-height="640"
     id="namedview5"
     showgrid="false"
     inkscape:zoom="2.36"
     inkscape:cx="50"
     inkscape:cy="50"
     inkscape:window-x="184"
     inkscape:window-y="236"
     inkscape:window-maximized="0"
     inkscape:current-layer="Layer_6" /><path
     id="path3"
     d="M 93.553163,4.6272371 H 6.0229186 c -1.9496497,0 -3.5340373,1.5331915 -3.5340373,3.414732 V 82.860117 c 0,1.156198 0.6012607,2.176034 1.514418,2.794809 v 0.538566 h 1.2677462 c 0.2431132,0.05041 0.4933417,0.08135 0.7518731,0.08135 H 93.55435 c 0.25853,0 0.508758,-0.03094 0.750686,-0.08135 h 0.174336 v -0.05155 c 1.498999,-0.396473 2.60902,-1.709656 2.60902,-3.280663 V 8.0431161 c 0,-1.8826875 -1.585573,-3.415879 -3.535222,-3.415879 z m 0.505203,3.415879 V 17.883959 H 70.745587 V 7.5549689 h 22.807576 c 0.27869,0 0.505203,0.2188714 0.505203,0.4881472 z M 93.815252,83.265759 H 70.745587 v -9.270192 h 23.312779 v 8.86455 c 0,0.174163 -0.100795,0.320848 -0.243114,0.405642 z M 5.5177164,82.860117 v -8.86455 H 16.458996 v 9.270192 H 5.7608296 C 5.61852,83.180966 5.5177164,83.034291 5.5177164,82.860117 z M 41.959794,48.379348 V 58.528434 H 19.487832 V 48.379348 H 41.959794 z M 19.487832,45.451617 V 34.472909 H 41.959794 V 45.451617 H 19.487832 z M 41.959794,61.456166 V 71.06898 H 19.487832 v -9.612814 h 22.471962 z m 0,12.539401 v 9.270192 H 19.487832 v -9.270192 h 22.471962 z m 3.030023,0 h 22.725748 v 9.270192 H 44.989817 v -9.270192 z m 0,-2.927732 V 61.45502 h 22.725748 v 9.612815 H 44.989817 z m 0,-12.539401 V 48.379348 H 67.715565 V 58.528434 H 44.989817 z m 0,-13.076817 V 34.472909 H 67.715565 V 45.451617 H 44.989817 z m 0,-13.90644 V 20.810545 H 67.715565 V 31.545177 H 44.989817 z m 0,-13.662363 V 7.553822 H 67.715565 V 17.882814 H 44.989817 z m -3.030023,0 H 19.487832 V 7.553822 h 22.471962 v 10.328992 z m 0,2.927731 V 31.545177 H 19.487832 V 20.810545 H 41.959794 z M 16.458996,31.545177 H 5.5177164 V 20.810545 H 16.458996 v 10.734632 z m 0,2.927732 V 45.451617 H 5.5177164 V 34.472909 H 16.458996 z m 0,13.906439 V 58.528434 H 5.5177164 V 48.379348 H 16.458996 z m 0,13.076818 V 71.06898 H 5.5177164 V 61.456166 H 16.458996 z m 54.286591,9.611669 V 61.45502 h 23.312779 v 9.612815 H 70.745587 z m 0,-12.539401 V 48.379348 H 94.058366 V 58.528434 H 70.745587 z m 0,-13.076817 V 34.472909 H 94.058366 V 45.451617 H 70.745587 z m 0,-13.90644 V 20.810545 H 94.058366 V 31.545177 H 70.745587 z"
     inkscape:connector-curvature="0" /><rect
     style="fill:#0000ff"
     id="rect2986"
     width="89.446365"
     height="8.7397861"
     x="5.064858"
     y="8.0647554" /><rect
     style="fill:#0000ff"
     id="rect2988"
     width="89.948875"
     height="11.653049"
     x="4.0598421"
     y="7.0936565" /><rect
     style="fill:#bf5d18;fill-opacity:0.86979167"
     id="rect3169"
     width="30.652967"
     height="9.2253304"
     x="3.5573328"
     y="85.26619"
     rx="0.43060124"
     ry="0.51837569" /><path
     style="fill:#bf5d18;fill-opacity:0.86979167"
     d="M 4.2012881,94.17503 C 4.012941,93.993046 3.8588365,92.132598 3.8588365,90.040712 l 0,-3.803425 15.0955545,0 15.095554,0 -0.145949,4.005736 -0.145949,4.005735 -14.607151,0.128585 C 11.11696,94.448069 4.3896379,94.356978 4.2012905,94.175041 z"
     id="path3983"
     inkscape:connector-curvature="0" /></svg>